<svg width="685" height="299" viewBox="0 0 685 299" fill="none" xmlns="http://www.w3.org/2000/svg">
<rect width="685" height="299" rx="51" fill="black"/>
<path d="M68.6055 64L67.1992 58.6484H57.9219L56.4766 64H48L57.3164 35.3281H67.6094L77.043 64H68.6055ZM65.5977 52.3203L64.3672 47.6328C64.237 47.125 64.0482 46.4023 63.8008 45.4648C63.5534 44.5143 63.306 43.5378 63.0586 42.5352C62.8242 41.5195 62.6419 40.6862 62.5117 40.0352C62.3945 40.6862 62.2253 41.4935 62.0039 42.457C61.7956 43.4076 61.5742 44.3516 61.3398 45.2891C61.1185 46.2266 60.9232 47.0078 60.7539 47.6328L59.5234 52.3203H65.5977ZM97.668 64L96.2617 58.6484H86.9844L85.5391 64H77.0625L86.3789 35.3281H96.6719L106.105 64H97.668ZM94.6602 52.3203L93.4297 47.6328C93.2995 47.125 93.1107 46.4023 92.8633 45.4648C92.6159 44.5143 92.3685 43.5378 92.1211 42.5352C91.8867 41.5195 91.7044 40.6862 91.5742 40.0352C91.457 40.6862 91.2878 41.4935 91.0664 42.457C90.8581 43.4076 90.6367 44.3516 90.4023 45.2891C90.181 46.2266 89.9857 47.0078 89.8164 47.6328L88.5859 52.3203H94.6602ZM144.074 64H136.32V52.3594H127.355V64H119.602V35.4453H127.355V46.0312H136.32V35.4453H144.074V64ZM176.984 49.6836C176.984 51.8841 176.717 53.8893 176.184 55.6992C175.663 57.4961 174.842 59.0456 173.723 60.3477C172.603 61.6497 171.164 62.6523 169.406 63.3555C167.648 64.0456 165.546 64.3906 163.098 64.3906C160.702 64.3906 158.625 64.0456 156.867 63.3555C155.122 62.6523 153.684 61.6562 152.551 60.3672C151.418 59.0651 150.578 57.5091 150.031 55.6992C149.484 53.8893 149.211 51.8711 149.211 49.6445C149.211 46.6758 149.699 44.0977 150.676 41.9102C151.665 39.7096 153.189 38.0104 155.246 36.8125C157.303 35.6016 159.934 34.9961 163.137 34.9961C166.392 34.9961 169.035 35.6016 171.066 36.8125C173.111 38.0234 174.608 39.7292 175.559 41.9297C176.509 44.1302 176.984 46.7148 176.984 49.6836ZM157.336 49.6836C157.336 51.4023 157.531 52.8802 157.922 54.1172C158.312 55.3542 158.931 56.3047 159.777 56.9688C160.624 57.6328 161.73 57.9648 163.098 57.9648C164.517 57.9648 165.643 57.6328 166.477 56.9688C167.323 56.3047 167.928 55.3542 168.293 54.1172C168.671 52.8802 168.859 51.4023 168.859 49.6836C168.859 47.1055 168.43 45.0677 167.57 43.5703C166.711 42.0729 165.233 41.3242 163.137 41.3242C161.743 41.3242 160.617 41.6628 159.758 42.3398C158.911 43.0169 158.293 43.9805 157.902 45.2305C157.525 46.4805 157.336 47.9648 157.336 49.6836ZM208.859 49.6836C208.859 51.8841 208.592 53.8893 208.059 55.6992C207.538 57.4961 206.717 59.0456 205.598 60.3477C204.478 61.6497 203.039 62.6523 201.281 63.3555C199.523 64.0456 197.421 64.3906 194.973 64.3906C192.577 64.3906 190.5 64.0456 188.742 63.3555C186.997 62.6523 185.559 61.6562 184.426 60.3672C183.293 59.0651 182.453 57.5091 181.906 55.6992C181.359 53.8893 181.086 51.8711 181.086 49.6445C181.086 46.6758 181.574 44.0977 182.551 41.9102C183.54 39.7096 185.064 38.0104 187.121 36.8125C189.178 35.6016 191.809 34.9961 195.012 34.9961C198.267 34.9961 200.91 35.6016 202.941 36.8125C204.986 38.0234 206.483 39.7292 207.434 41.9297C208.384 44.1302 208.859 46.7148 208.859 49.6836ZM189.211 49.6836C189.211 51.4023 189.406 52.8802 189.797 54.1172C190.188 55.3542 190.806 56.3047 191.652 56.9688C192.499 57.6328 193.605 57.9648 194.973 57.9648C196.392 57.9648 197.518 57.6328 198.352 56.9688C199.198 56.3047 199.803 55.3542 200.168 54.1172C200.546 52.8802 200.734 51.4023 200.734 49.6836C200.734 47.1055 200.305 45.0677 199.445 43.5703C198.586 42.0729 197.108 41.3242 195.012 41.3242C193.618 41.3242 192.492 41.6628 191.633 42.3398C190.786 43.0169 190.168 43.9805 189.777 45.2305C189.4 46.4805 189.211 47.9648 189.211 49.6836ZM238.41 64H229.699L224.055 53.082L221.77 54.4492V64H214.016V35.4453H221.77V47.8477C222.095 47.2227 222.466 46.5977 222.883 45.9727C223.312 45.3477 223.729 44.7552 224.133 44.1953L230.129 35.4453H238.566L229.562 48.2383L238.41 64ZM260.188 55.3281C260.188 56.8776 259.797 58.349 259.016 59.7422C258.234 61.1224 257.017 62.2422 255.363 63.1016C253.723 63.9609 251.6 64.3906 248.996 64.3906C247.694 64.3906 246.548 64.332 245.559 64.2148C244.582 64.0977 243.671 63.9089 242.824 63.6484C241.978 63.375 241.099 63.0234 240.188 62.5938V55.7188C241.737 56.5 243.299 57.099 244.875 57.5156C246.451 57.9193 247.876 58.1211 249.152 58.1211C249.921 58.1211 250.546 58.0299 251.027 57.8477C251.522 57.6654 251.887 57.418 252.121 57.1055C252.355 56.7799 252.473 56.4089 252.473 55.9922C252.473 55.4974 252.297 55.0807 251.945 54.7422C251.607 54.3906 251.06 54.026 250.305 53.6484C249.549 53.2708 248.553 52.8021 247.316 52.2422C246.262 51.7474 245.305 51.2396 244.445 50.7188C243.599 50.1979 242.87 49.6055 242.258 48.9414C241.659 48.2643 241.197 47.4766 240.871 46.5781C240.546 45.6797 240.383 44.6185 240.383 43.3945C240.383 41.5586 240.832 40.0221 241.73 38.7852C242.642 37.5352 243.905 36.5977 245.52 35.9727C247.147 35.3477 249.022 35.0352 251.145 35.0352C253.007 35.0352 254.68 35.2435 256.164 35.6602C257.661 36.0768 259.003 36.5521 260.188 37.0859L257.824 43.043C256.6 42.4831 255.396 42.0404 254.211 41.7148C253.026 41.3763 251.926 41.207 250.91 41.207C250.246 41.207 249.699 41.2917 249.27 41.4609C248.853 41.6172 248.54 41.832 248.332 42.1055C248.137 42.3789 248.039 42.6914 248.039 43.043C248.039 43.4857 248.208 43.8828 248.547 44.2344C248.898 44.5859 249.478 44.9701 250.285 45.3867C251.105 45.7904 252.219 46.3177 253.625 46.9688C255.018 47.5938 256.203 48.2708 257.18 49C258.156 49.7161 258.898 50.582 259.406 51.5977C259.927 52.6003 260.188 53.8438 260.188 55.3281Z" fill="#146C94"/>
<path d="M320.396 281.274C320.396 281.849 320.326 282.373 320.185 282.847C320.043 283.316 319.834 283.722 319.556 284.063C319.278 284.405 318.931 284.67 318.517 284.856C318.106 285.043 317.628 285.137 317.081 285.137C316.562 285.137 316.099 285.046 315.693 284.863C315.288 284.676 314.944 284.412 314.661 284.07C314.383 283.729 314.171 283.323 314.025 282.854C313.88 282.38 313.807 281.853 313.807 281.274C313.807 280.477 313.939 279.791 314.203 279.217C314.472 278.638 314.855 278.196 315.352 277.891C315.853 277.581 316.452 277.426 317.149 277.426C317.869 277.426 318.469 277.59 318.947 277.918C319.43 278.242 319.793 278.693 320.034 279.271C320.276 279.85 320.396 280.518 320.396 281.274ZM314.518 281.274C314.518 281.926 314.611 282.496 314.798 282.983C314.985 283.471 315.267 283.852 315.646 284.125C316.028 284.398 316.511 284.535 317.095 284.535C317.692 284.535 318.182 284.398 318.564 284.125C318.947 283.852 319.23 283.469 319.412 282.977C319.594 282.484 319.686 281.917 319.686 281.274C319.686 280.65 319.599 280.094 319.426 279.606C319.253 279.119 318.979 278.736 318.605 278.458C318.232 278.175 317.744 278.034 317.143 278.034C316.281 278.034 315.627 278.321 315.181 278.896C314.739 279.47 314.518 280.263 314.518 281.274ZM323.131 274.363V277.385C323.131 277.645 323.126 277.929 323.117 278.239C323.108 278.549 323.099 278.807 323.09 279.012H323.131C323.309 278.551 323.618 278.171 324.061 277.87C324.503 277.569 325.054 277.419 325.715 277.419C326.681 277.419 327.426 277.745 327.95 278.396C328.479 279.048 328.743 280.003 328.743 281.261C328.743 282.031 328.625 282.708 328.388 283.291C328.151 283.87 327.798 284.323 327.328 284.651C326.863 284.975 326.28 285.137 325.578 285.137C324.945 285.137 324.427 285.005 324.026 284.74C323.625 284.471 323.334 284.136 323.151 283.735H323.097L322.967 285H322.44V274.363H323.131ZM325.64 278.021C325.052 278.021 324.573 278.148 324.204 278.403C323.835 278.654 323.564 279.021 323.391 279.504C323.217 279.987 323.131 280.577 323.131 281.274V281.384C323.131 282.409 323.318 283.191 323.691 283.729C324.065 284.266 324.671 284.535 325.51 284.535C326.339 284.535 326.966 284.253 327.39 283.688C327.818 283.118 328.032 282.309 328.032 281.261C328.032 280.19 327.834 279.383 327.438 278.841C327.041 278.294 326.442 278.021 325.64 278.021ZM329.563 277.569H330.295L332.1 282.286C332.209 282.564 332.305 282.822 332.387 283.059C332.473 283.291 332.549 283.505 332.612 283.701C332.676 283.893 332.729 284.068 332.77 284.228H332.811C332.879 284.018 332.97 283.749 333.084 283.421C333.198 283.088 333.328 282.719 333.474 282.313L335.258 277.569H335.996L332.605 286.395C332.441 286.823 332.261 287.185 332.065 287.481C331.869 287.782 331.639 288.008 331.375 288.158C331.111 288.313 330.792 288.391 330.418 288.391C330.249 288.391 330.097 288.377 329.96 288.35C329.823 288.327 329.691 288.295 329.563 288.254V287.659C329.682 287.696 329.803 287.725 329.926 287.748C330.053 287.775 330.192 287.789 330.343 287.789C330.603 287.789 330.826 287.734 331.013 287.625C331.204 287.52 331.375 287.356 331.525 287.133C331.676 286.91 331.817 286.625 331.949 286.278L332.455 284.959L329.563 277.569ZM339.223 284.542C339.437 284.542 339.635 284.526 339.817 284.494C340.004 284.462 340.168 284.421 340.31 284.371V284.945C340.164 284.995 339.993 285.039 339.797 285.075C339.601 285.116 339.384 285.137 339.147 285.137C338.728 285.137 338.38 285.059 338.102 284.904C337.824 284.745 337.614 284.506 337.473 284.187C337.331 283.863 337.261 283.453 337.261 282.956V278.144H336.153V277.733L337.254 277.521L337.493 275.771H337.951V277.569H340.269V278.144H337.951V282.915C337.951 283.448 338.049 283.854 338.245 284.132C338.446 284.405 338.771 284.542 339.223 284.542ZM344.719 277.426C345.352 277.426 345.879 277.574 346.298 277.87C346.722 278.166 347.036 278.572 347.241 279.087C347.451 279.602 347.556 280.192 347.556 280.857V281.356H342.189C342.189 282.377 342.424 283.161 342.894 283.708C343.368 284.255 344.044 284.528 344.924 284.528C345.384 284.528 345.783 284.492 346.12 284.419C346.462 284.341 346.84 284.212 347.255 284.029V284.665C346.89 284.829 346.526 284.948 346.161 285.021C345.797 285.098 345.377 285.137 344.903 285.137C344.151 285.137 343.52 284.982 343.01 284.672C342.504 284.357 342.121 283.915 341.861 283.346C341.606 282.776 341.479 282.111 341.479 281.35C341.479 280.607 341.602 279.939 341.848 279.347C342.098 278.754 342.463 278.287 342.941 277.945C343.424 277.599 344.017 277.426 344.719 277.426ZM344.712 278.021C344.001 278.021 343.424 278.257 342.982 278.731C342.545 279.201 342.287 279.88 342.21 280.769H346.838C346.838 280.226 346.76 279.748 346.605 279.333C346.451 278.918 346.216 278.597 345.901 278.369C345.591 278.137 345.195 278.021 344.712 278.021ZM349.49 284.515C349.49 284.314 349.536 284.161 349.627 284.057C349.718 283.947 349.853 283.893 350.03 283.893C350.226 283.893 350.37 283.947 350.461 284.057C350.552 284.161 350.598 284.314 350.598 284.515C350.598 284.715 350.552 284.87 350.461 284.979C350.37 285.089 350.226 285.144 350.03 285.144C349.853 285.144 349.718 285.089 349.627 284.979C349.536 284.87 349.49 284.715 349.49 284.515ZM359.102 281.274C359.102 281.849 359.031 282.373 358.89 282.847C358.748 283.316 358.539 283.722 358.261 284.063C357.983 284.405 357.636 284.67 357.222 284.856C356.812 285.043 356.333 285.137 355.786 285.137C355.267 285.137 354.804 285.046 354.398 284.863C353.993 284.676 353.649 284.412 353.366 284.07C353.088 283.729 352.876 283.323 352.73 282.854C352.585 282.38 352.512 281.853 352.512 281.274C352.512 280.477 352.644 279.791 352.908 279.217C353.177 278.638 353.56 278.196 354.057 277.891C354.558 277.581 355.157 277.426 355.854 277.426C356.575 277.426 357.174 277.59 357.652 277.918C358.135 278.242 358.498 278.693 358.739 279.271C358.981 279.85 359.102 280.518 359.102 281.274ZM353.223 281.274C353.223 281.926 353.316 282.496 353.503 282.983C353.69 283.471 353.972 283.852 354.351 284.125C354.733 284.398 355.216 284.535 355.8 284.535C356.397 284.535 356.887 284.398 357.27 284.125C357.652 283.852 357.935 283.469 358.117 282.977C358.299 282.484 358.391 281.917 358.391 281.274C358.391 280.65 358.304 280.094 358.131 279.606C357.958 279.119 357.684 278.736 357.311 278.458C356.937 278.175 356.449 278.034 355.848 278.034C354.986 278.034 354.332 278.321 353.886 278.896C353.444 279.47 353.223 280.263 353.223 281.274ZM364.112 277.439C364.308 277.439 364.493 277.451 364.666 277.474C364.839 277.496 365.001 277.528 365.151 277.569L365.042 278.205C364.892 278.164 364.739 278.134 364.584 278.116C364.429 278.093 364.263 278.082 364.085 278.082C363.734 278.082 363.42 278.148 363.142 278.28C362.868 278.412 362.636 278.602 362.444 278.848C362.253 279.094 362.107 279.39 362.007 279.736C361.907 280.083 361.856 280.47 361.856 280.898V285H361.159V277.569H361.754L361.822 278.971H361.863C361.977 278.684 362.137 278.426 362.342 278.198C362.551 277.966 362.804 277.781 363.101 277.645C363.397 277.508 363.734 277.439 364.112 277.439ZM368.576 288.363C367.642 288.363 366.915 288.183 366.396 287.823C365.881 287.463 365.623 286.96 365.623 286.312C365.623 285.811 365.78 285.378 366.095 285.014C366.409 284.654 366.835 284.437 367.373 284.364C367.159 284.264 366.983 284.127 366.847 283.954C366.715 283.781 366.648 283.58 366.648 283.353C366.648 283.097 366.728 282.86 366.888 282.642C367.047 282.418 367.286 282.213 367.605 282.026C367.177 281.871 366.84 281.609 366.594 281.24C366.348 280.867 366.225 280.418 366.225 279.894C366.225 279.392 366.332 278.957 366.546 278.588C366.76 278.219 367.063 277.934 367.455 277.733C367.852 277.528 368.319 277.426 368.856 277.426C369.021 277.426 369.169 277.43 369.301 277.439C369.438 277.449 369.563 277.465 369.677 277.487C369.791 277.506 369.893 277.531 369.984 277.562H372.384V278.055L370.853 278.157C371.053 278.399 371.203 278.661 371.304 278.943C371.404 279.221 371.454 279.515 371.454 279.825C371.454 280.563 371.222 281.149 370.757 281.582C370.292 282.015 369.645 282.231 368.815 282.231C368.588 282.231 368.364 282.211 368.146 282.17C367.868 282.334 367.656 282.5 367.51 282.669C367.364 282.833 367.291 283.038 367.291 283.284C367.291 283.439 367.337 283.567 367.428 283.667C367.519 283.763 367.651 283.838 367.824 283.893C367.997 283.943 368.209 283.968 368.46 283.968H369.766C370.572 283.968 371.19 284.132 371.618 284.46C372.047 284.788 372.261 285.271 372.261 285.909C372.261 286.688 371.939 287.292 371.297 287.721C370.659 288.149 369.752 288.363 368.576 288.363ZM368.624 287.782C369.276 287.782 369.818 287.712 370.251 287.57C370.688 287.429 371.017 287.219 371.235 286.941C371.454 286.668 371.563 286.328 371.563 285.923C371.563 285.59 371.484 285.333 371.324 285.15C371.165 284.968 370.939 284.843 370.647 284.774C370.356 284.701 370.012 284.665 369.615 284.665H368.371C367.975 284.665 367.621 284.72 367.312 284.829C367.002 284.934 366.76 285.103 366.587 285.335C366.418 285.567 366.334 285.877 366.334 286.265C366.334 286.761 366.528 287.137 366.915 287.393C367.307 287.652 367.877 287.782 368.624 287.782ZM368.843 281.678C369.458 281.678 369.93 281.523 370.258 281.213C370.586 280.903 370.75 280.454 370.75 279.866C370.75 279.237 370.581 278.766 370.244 278.451C369.907 278.137 369.435 277.979 368.829 277.979C368.241 277.979 367.779 278.148 367.441 278.485C367.109 278.818 366.942 279.287 366.942 279.894C366.942 280.459 367.102 280.898 367.421 281.213C367.74 281.523 368.214 281.678 368.843 281.678Z" fill="#666666"/>
<path d="M50.2129 100V84.2949H51.3193V98.9902H58.7959V100H50.2129ZM62.2979 88.3232V100H61.2129V88.3232H62.2979ZM61.7715 84.0049C62.0436 84.0049 62.2441 84.0872 62.373 84.252C62.502 84.4095 62.5664 84.6243 62.5664 84.8965C62.5664 85.1686 62.502 85.3835 62.373 85.541C62.2441 85.6986 62.0436 85.7773 61.7715 85.7773C61.5137 85.7773 61.3203 85.6986 61.1914 85.541C61.0625 85.3835 60.998 85.1686 60.998 84.8965C60.998 84.6243 61.0625 84.4095 61.1914 84.252C61.3203 84.0872 61.5137 84.0049 61.7715 84.0049ZM67.2715 83.2852V88.0332C67.2715 88.4414 67.2643 88.889 67.25 89.376C67.2357 89.863 67.2214 90.2676 67.207 90.5898H67.2715C67.5508 89.8665 68.0378 89.2686 68.7324 88.7959C69.4271 88.3232 70.2936 88.0869 71.332 88.0869C72.8503 88.0869 74.0212 88.599 74.8447 89.623C75.6755 90.6471 76.0908 92.1475 76.0908 94.124C76.0908 95.3343 75.9046 96.3978 75.5322 97.3145C75.1598 98.224 74.6048 98.9365 73.8672 99.4521C73.1367 99.9606 72.2201 100.215 71.1172 100.215C70.1217 100.215 69.3089 100.007 68.6787 99.5918C68.0485 99.1693 67.5902 98.6429 67.3037 98.0127H67.2178L67.0137 100H66.1865V83.2852H67.2715ZM71.2139 89.0322C70.29 89.0322 69.5381 89.2327 68.958 89.6338C68.3779 90.0277 67.9518 90.6042 67.6797 91.3633C67.4076 92.1224 67.2715 93.0498 67.2715 94.1455V94.3174C67.2715 95.9287 67.5651 97.1569 68.1523 98.002C68.7396 98.847 69.6921 99.2695 71.0098 99.2695C72.3132 99.2695 73.2979 98.8255 73.9639 97.9375C74.637 97.0423 74.9736 95.7712 74.9736 94.124C74.9736 92.4411 74.6621 91.1735 74.0391 90.3213C73.416 89.4619 72.4743 89.0322 71.2139 89.0322ZM83.9541 88.1191C84.262 88.1191 84.5521 88.137 84.8242 88.1729C85.0964 88.2087 85.3506 88.2588 85.5869 88.3232L85.415 89.3223C85.1787 89.2578 84.9388 89.2113 84.6953 89.1826C84.4518 89.1468 84.1904 89.1289 83.9111 89.1289C83.3597 89.1289 82.8656 89.2327 82.4287 89.4404C81.999 89.6481 81.6338 89.9453 81.333 90.332C81.0322 90.7188 80.8031 91.1842 80.6455 91.7285C80.488 92.2728 80.4092 92.8815 80.4092 93.5547V100H79.3135V88.3232H80.248L80.3555 90.5254H80.4199C80.599 90.0742 80.8496 89.6696 81.1719 89.3115C81.5013 88.9463 81.8988 88.6562 82.3643 88.4414C82.8298 88.2266 83.3597 88.1191 83.9541 88.1191ZM91.957 88.1191C93.2389 88.1191 94.1986 88.4414 94.8359 89.0859C95.4733 89.7305 95.792 90.7581 95.792 92.1689V100H94.9541L94.7607 97.959H94.6963C94.4456 98.3958 94.1413 98.7861 93.7832 99.1299C93.4251 99.4665 92.9847 99.7314 92.4619 99.9248C91.9463 100.118 91.3161 100.215 90.5713 100.215C89.8193 100.215 89.1748 100.09 88.6377 99.8389C88.1077 99.5882 87.696 99.223 87.4023 98.7432C87.1159 98.2633 86.9727 97.6797 86.9727 96.9922C86.9727 95.832 87.4525 94.9512 88.4121 94.3496C89.3717 93.7409 90.7503 93.3971 92.5479 93.3184L94.7178 93.2109V92.3623C94.7178 91.1663 94.4814 90.3141 94.0088 89.8057C93.5361 89.2972 92.8379 89.043 91.9141 89.043C91.3125 89.043 90.7324 89.1217 90.1738 89.2793C89.6224 89.4297 89.0602 89.6481 88.4873 89.9346L88.1436 89.0322C88.7021 88.7673 89.3001 88.5488 89.9375 88.377C90.582 88.2051 91.2552 88.1191 91.957 88.1191ZM94.707 94.0596L92.666 94.1455C91.1836 94.2171 90.0557 94.4821 89.2822 94.9404C88.5088 95.3988 88.1221 96.0863 88.1221 97.0029C88.1221 97.7406 88.3512 98.3063 88.8096 98.7002C89.2751 99.0941 89.9196 99.291 90.7432 99.291C92.0251 99.291 93.0026 98.9258 93.6758 98.1953C94.3561 97.4648 94.6999 96.4694 94.707 95.209V94.0596ZM104.192 88.1191C104.5 88.1191 104.79 88.137 105.062 88.1729C105.335 88.2087 105.589 88.2588 105.825 88.3232L105.653 89.3223C105.417 89.2578 105.177 89.2113 104.934 89.1826C104.69 89.1468 104.429 89.1289 104.149 89.1289C103.598 89.1289 103.104 89.2327 102.667 89.4404C102.237 89.6481 101.872 89.9453 101.571 90.332C101.271 90.7188 101.041 91.1842 100.884 91.7285C100.726 92.2728 100.647 92.8815 100.647 93.5547V100H99.5518V88.3232H100.486L100.594 90.5254H100.658C100.837 90.0742 101.088 89.6696 101.41 89.3115C101.74 88.9463 102.137 88.6562 102.603 88.4414C103.068 88.2266 103.598 88.1191 104.192 88.1191ZM106.19 88.3232H107.34L110.176 95.7354C110.348 96.1722 110.498 96.5768 110.627 96.9492C110.763 97.3145 110.881 97.651 110.981 97.959C111.082 98.2598 111.164 98.5355 111.229 98.7861H111.293C111.4 98.4567 111.544 98.0342 111.723 97.5186C111.902 96.9958 112.106 96.4157 112.335 95.7783L115.139 88.3232H116.299L110.971 102.191C110.713 102.865 110.43 103.434 110.122 103.899C109.814 104.372 109.452 104.727 109.037 104.963C108.622 105.206 108.12 105.328 107.533 105.328C107.268 105.328 107.028 105.307 106.813 105.264C106.599 105.228 106.391 105.178 106.19 105.113V104.179C106.377 104.236 106.566 104.283 106.76 104.318C106.96 104.361 107.179 104.383 107.415 104.383C107.823 104.383 108.174 104.297 108.468 104.125C108.769 103.96 109.037 103.702 109.273 103.352C109.51 103.001 109.732 102.553 109.939 102.009L110.734 99.9355L106.19 88.3232ZM128.276 89.2256H125.526V100H124.441V89.2256H122.271V88.5811L124.441 88.3018V87.0127C124.441 86.1533 124.563 85.4408 124.807 84.875C125.057 84.3021 125.433 83.876 125.935 83.5967C126.443 83.3102 127.084 83.167 127.857 83.167C128.258 83.167 128.62 83.1992 128.942 83.2637C129.265 83.321 129.565 83.3962 129.845 83.4893L129.598 84.4023C129.347 84.3164 129.068 84.2448 128.76 84.1875C128.459 84.1302 128.162 84.1016 127.868 84.1016C127.045 84.1016 126.447 84.3307 126.074 84.7891C125.709 85.2402 125.526 85.9779 125.526 87.002V88.3232H128.276V89.2256ZM140.232 94.1455C140.232 95.0479 140.121 95.8714 139.899 96.6162C139.677 97.3538 139.348 97.9912 138.911 98.5283C138.474 99.0654 137.93 99.4808 137.278 99.7744C136.634 100.068 135.882 100.215 135.022 100.215C134.206 100.215 133.479 100.072 132.842 99.7852C132.204 99.4915 131.664 99.0762 131.22 98.5391C130.783 98.002 130.45 97.3646 130.221 96.627C129.992 95.8822 129.877 95.055 129.877 94.1455C129.877 92.8923 130.085 91.8145 130.5 90.9121C130.923 90.0026 131.524 89.3079 132.305 88.8281C133.092 88.3411 134.034 88.0977 135.13 88.0977C136.261 88.0977 137.203 88.3555 137.955 88.8711C138.714 89.3796 139.284 90.0885 139.663 90.998C140.043 91.9076 140.232 92.9567 140.232 94.1455ZM130.994 94.1455C130.994 95.1696 131.141 96.0648 131.435 96.8311C131.728 97.5973 132.172 98.1953 132.767 98.625C133.368 99.0547 134.127 99.2695 135.044 99.2695C135.982 99.2695 136.752 99.0547 137.354 98.625C137.955 98.1953 138.399 97.5938 138.686 96.8203C138.972 96.0469 139.115 95.1553 139.115 94.1455C139.115 93.1644 138.979 92.2907 138.707 91.5244C138.435 90.7581 138.005 90.1566 137.418 89.7197C136.831 89.2757 136.064 89.0537 135.119 89.0537C133.766 89.0537 132.738 89.5049 132.036 90.4072C131.341 91.3096 130.994 92.5557 130.994 94.1455ZM148.106 88.1191C148.414 88.1191 148.704 88.137 148.977 88.1729C149.249 88.2087 149.503 88.2588 149.739 88.3232L149.567 89.3223C149.331 89.2578 149.091 89.2113 148.848 89.1826C148.604 89.1468 148.343 89.1289 148.063 89.1289C147.512 89.1289 147.018 89.2327 146.581 89.4404C146.151 89.6481 145.786 89.9453 145.485 90.332C145.185 90.7188 144.955 91.1842 144.798 91.7285C144.64 92.2728 144.562 92.8815 144.562 93.5547V100H143.466V88.3232H144.4L144.508 90.5254H144.572C144.751 90.0742 145.002 89.6696 145.324 89.3115C145.654 88.9463 146.051 88.6562 146.517 88.4414C146.982 88.2266 147.512 88.1191 148.106 88.1191ZM167.077 100L164.596 92.1582C164.517 91.9219 164.445 91.6963 164.381 91.4814C164.316 91.2666 164.256 91.0589 164.198 90.8584C164.141 90.6579 164.087 90.4645 164.037 90.2783C163.987 90.085 163.937 89.8952 163.887 89.709H163.833C163.783 89.8952 163.733 90.085 163.683 90.2783C163.632 90.4717 163.579 90.6722 163.521 90.8799C163.464 91.0876 163.403 91.2988 163.339 91.5137C163.274 91.7285 163.203 91.9505 163.124 92.1797L160.557 100H159.439L156.12 88.3232H157.27L159.321 95.7891C159.443 96.2259 159.547 96.6162 159.633 96.96C159.719 97.3037 159.794 97.6152 159.858 97.8945C159.923 98.1738 159.98 98.4388 160.03 98.6895H160.084C160.127 98.5104 160.174 98.3242 160.224 98.1309C160.274 97.9303 160.327 97.7155 160.385 97.4863C160.442 97.2572 160.51 97.0137 160.589 96.7559C160.668 96.498 160.754 96.2188 160.847 95.918L163.35 88.3232H164.424L166.83 95.8965C166.945 96.2617 167.049 96.6126 167.142 96.9492C167.242 97.2786 167.328 97.5866 167.399 97.873C167.478 98.1595 167.543 98.4281 167.593 98.6787H167.657C167.686 98.4424 167.729 98.1846 167.786 97.9053C167.851 97.6188 167.926 97.3001 168.012 96.9492C168.105 96.5983 168.209 96.2116 168.323 95.7891L170.3 88.3232H171.396L168.227 100H167.077ZM183.33 94.1455C183.33 95.0479 183.219 95.8714 182.997 96.6162C182.775 97.3538 182.446 97.9912 182.009 98.5283C181.572 99.0654 181.028 99.4808 180.376 99.7744C179.731 100.068 178.979 100.215 178.12 100.215C177.304 100.215 176.577 100.072 175.939 99.7852C175.302 99.4915 174.761 99.0762 174.317 98.5391C173.881 98.002 173.548 97.3646 173.318 96.627C173.089 95.8822 172.975 95.055 172.975 94.1455C172.975 92.8923 173.182 91.8145 173.598 90.9121C174.02 90.0026 174.622 89.3079 175.402 88.8281C176.19 88.3411 177.132 88.0977 178.228 88.0977C179.359 88.0977 180.301 88.3555 181.053 88.8711C181.812 89.3796 182.381 90.0885 182.761 90.998C183.14 91.9076 183.33 92.9567 183.33 94.1455ZM174.092 94.1455C174.092 95.1696 174.239 96.0648 174.532 96.8311C174.826 97.5973 175.27 98.1953 175.864 98.625C176.466 99.0547 177.225 99.2695 178.142 99.2695C179.08 99.2695 179.85 99.0547 180.451 98.625C181.053 98.1953 181.497 97.5938 181.783 96.8203C182.07 96.0469 182.213 95.1553 182.213 94.1455C182.213 93.1644 182.077 92.2907 181.805 91.5244C181.533 90.7581 181.103 90.1566 180.516 89.7197C179.928 89.2757 179.162 89.0537 178.217 89.0537C176.863 89.0537 175.836 89.5049 175.134 90.4072C174.439 91.3096 174.092 92.5557 174.092 94.1455ZM191.204 88.1191C191.512 88.1191 191.802 88.137 192.074 88.1729C192.346 88.2087 192.601 88.2588 192.837 88.3232L192.665 89.3223C192.429 89.2578 192.189 89.2113 191.945 89.1826C191.702 89.1468 191.44 89.1289 191.161 89.1289C190.61 89.1289 190.116 89.2327 189.679 89.4404C189.249 89.6481 188.884 89.9453 188.583 90.332C188.282 90.7188 188.053 91.1842 187.896 91.7285C187.738 92.2728 187.659 92.8815 187.659 93.5547V100H186.563V88.3232H187.498L187.605 90.5254H187.67C187.849 90.0742 188.1 89.6696 188.422 89.3115C188.751 88.9463 189.149 88.6562 189.614 88.4414C190.08 88.2266 190.61 88.1191 191.204 88.1191ZM196.21 83.2852V91.7178C196.21 92.2406 196.203 92.7741 196.188 93.3184C196.181 93.8555 196.171 94.3926 196.156 94.9297H196.178C196.385 94.6862 196.6 94.432 196.822 94.167C197.051 93.8949 197.277 93.6335 197.499 93.3828L202.118 88.3232H203.429L198.82 93.3291L203.837 100H202.537L198.079 94.0488L196.21 96.0146V100H195.125V83.2852H196.21ZM206.866 88.3232V100H205.781V88.3232H206.866ZM206.34 84.0049C206.612 84.0049 206.812 84.0872 206.941 84.252C207.07 84.4095 207.135 84.6243 207.135 84.8965C207.135 85.1686 207.07 85.3835 206.941 85.541C206.812 85.6986 206.612 85.7773 206.34 85.7773C206.082 85.7773 205.889 85.6986 205.76 85.541C205.631 85.3835 205.566 85.1686 205.566 84.8965C205.566 84.6243 205.631 84.4095 205.76 84.252C205.889 84.0872 206.082 84.0049 206.34 84.0049ZM215.911 88.0977C217.222 88.0977 218.228 88.4414 218.93 89.1289C219.632 89.8164 219.982 90.8942 219.982 92.3623V100H218.908V92.4268C218.908 91.2666 218.643 90.4144 218.113 89.8701C217.583 89.3258 216.813 89.0537 215.804 89.0537C214.522 89.0537 213.541 89.4297 212.86 90.1816C212.187 90.9264 211.851 92.0544 211.851 93.5654V100H210.766V88.3232H211.646L211.808 90.4502H211.872C212.08 90.0133 212.363 89.6195 212.721 89.2686C213.086 88.9105 213.534 88.6276 214.063 88.4199C214.593 88.2051 215.209 88.0977 215.911 88.0977ZM226.857 105.285C225.389 105.285 224.247 105.002 223.431 104.437C222.621 103.871 222.217 103.079 222.217 102.062C222.217 101.275 222.464 100.594 222.958 100.021C223.452 99.4557 224.122 99.1156 224.967 99.001C224.63 98.8434 224.354 98.6286 224.14 98.3564C223.932 98.0843 223.828 97.7692 223.828 97.4111C223.828 97.0101 223.953 96.6377 224.204 96.2939C224.455 95.943 224.831 95.6208 225.332 95.3271C224.659 95.0837 224.129 94.6719 223.742 94.0918C223.355 93.5046 223.162 92.7992 223.162 91.9756C223.162 91.1878 223.33 90.5039 223.667 89.9238C224.004 89.3438 224.48 88.8962 225.096 88.5811C225.719 88.2588 226.453 88.0977 227.298 88.0977C227.556 88.0977 227.788 88.1048 227.996 88.1191C228.211 88.1335 228.408 88.1585 228.587 88.1943C228.766 88.223 228.927 88.2624 229.07 88.3125H232.841V89.0859L230.435 89.2471C230.75 89.6266 230.986 90.0384 231.144 90.4824C231.301 90.9193 231.38 91.3812 231.38 91.8682C231.38 93.0283 231.015 93.9486 230.284 94.6289C229.554 95.3092 228.537 95.6494 227.233 95.6494C226.875 95.6494 226.524 95.6172 226.181 95.5527C225.744 95.8105 225.411 96.0719 225.182 96.3369C224.952 96.5947 224.838 96.917 224.838 97.3037C224.838 97.5472 224.91 97.7477 225.053 97.9053C225.196 98.0557 225.404 98.1738 225.676 98.2598C225.948 98.3385 226.281 98.3779 226.675 98.3779H228.727C229.994 98.3779 230.965 98.6357 231.638 99.1514C232.311 99.667 232.647 100.426 232.647 101.429C232.647 102.653 232.143 103.602 231.133 104.275C230.13 104.949 228.705 105.285 226.857 105.285ZM226.933 104.372C227.957 104.372 228.809 104.261 229.489 104.039C230.177 103.817 230.692 103.488 231.036 103.051C231.38 102.621 231.552 102.088 231.552 101.45C231.552 100.927 231.426 100.523 231.176 100.236C230.925 99.9499 230.571 99.7529 230.112 99.6455C229.654 99.5309 229.113 99.4736 228.49 99.4736H226.535C225.912 99.4736 225.357 99.5596 224.87 99.7314C224.383 99.8962 224.004 100.161 223.731 100.526C223.466 100.892 223.334 101.379 223.334 101.987C223.334 102.768 223.638 103.359 224.247 103.76C224.863 104.168 225.758 104.372 226.933 104.372ZM227.276 94.7793C228.243 94.7793 228.984 94.5358 229.5 94.0488C230.016 93.5618 230.273 92.8564 230.273 91.9326C230.273 90.9443 230.008 90.2031 229.479 89.709C228.949 89.2148 228.207 88.9678 227.255 88.9678C226.331 88.9678 225.604 89.2327 225.074 89.7627C224.551 90.2855 224.29 91.0231 224.29 91.9756C224.29 92.8636 224.541 93.5547 225.042 94.0488C225.543 94.5358 226.288 94.7793 227.276 94.7793ZM250.243 100L247.762 92.1582C247.683 91.9219 247.611 91.6963 247.547 91.4814C247.482 91.2666 247.422 91.0589 247.364 90.8584C247.307 90.6579 247.253 90.4645 247.203 90.2783C247.153 90.085 247.103 89.8952 247.053 89.709H246.999C246.949 89.8952 246.899 90.085 246.849 90.2783C246.799 90.4717 246.745 90.6722 246.688 90.8799C246.63 91.0876 246.569 91.2988 246.505 91.5137C246.44 91.7285 246.369 91.9505 246.29 92.1797L243.723 100H242.605L239.286 88.3232H240.436L242.487 95.7891C242.609 96.2259 242.713 96.6162 242.799 96.96C242.885 97.3037 242.96 97.6152 243.024 97.8945C243.089 98.1738 243.146 98.4388 243.196 98.6895H243.25C243.293 98.5104 243.34 98.3242 243.39 98.1309C243.44 97.9303 243.493 97.7155 243.551 97.4863C243.608 97.2572 243.676 97.0137 243.755 96.7559C243.834 96.498 243.92 96.2188 244.013 95.918L246.516 88.3232H247.59L249.996 95.8965C250.111 96.2617 250.215 96.6126 250.308 96.9492C250.408 97.2786 250.494 97.5866 250.565 97.873C250.644 98.1595 250.709 98.4281 250.759 98.6787H250.823C250.852 98.4424 250.895 98.1846 250.952 97.9053C251.017 97.6188 251.092 97.3001 251.178 96.9492C251.271 96.5983 251.375 96.2116 251.489 95.7891L253.466 88.3232H254.562L251.393 100H250.243ZM257.892 88.3232V100H256.807V88.3232H257.892ZM257.365 84.0049C257.637 84.0049 257.838 84.0872 257.967 84.252C258.096 84.4095 258.16 84.6243 258.16 84.8965C258.16 85.1686 258.096 85.3835 257.967 85.541C257.838 85.6986 257.637 85.7773 257.365 85.7773C257.107 85.7773 256.914 85.6986 256.785 85.541C256.656 85.3835 256.592 85.1686 256.592 84.8965C256.592 84.6243 256.656 84.4095 256.785 84.252C256.914 84.0872 257.107 84.0049 257.365 84.0049ZM264.949 99.2803C265.286 99.2803 265.597 99.2552 265.884 99.2051C266.177 99.1549 266.435 99.0905 266.657 99.0117V99.9141C266.428 99.9928 266.16 100.061 265.852 100.118C265.544 100.183 265.203 100.215 264.831 100.215C264.172 100.215 263.624 100.093 263.188 99.8496C262.751 99.599 262.421 99.223 262.199 98.7217C261.977 98.2132 261.866 97.5687 261.866 96.7881V89.2256H260.126V88.5811L261.855 88.248L262.231 85.498H262.951V88.3232H266.593V89.2256H262.951V96.7236C262.951 97.5615 263.105 98.1989 263.413 98.6357C263.728 99.0654 264.24 99.2803 264.949 99.2803ZM270.245 83.2852V88.7422C270.245 89.0573 270.238 89.3509 270.224 89.623C270.216 89.8952 270.202 90.1709 270.181 90.4502H270.256C270.449 90.0062 270.725 89.6087 271.083 89.2578C271.448 88.9069 271.896 88.6276 272.426 88.4199C272.963 88.2122 273.582 88.1084 274.284 88.1084C275.172 88.1084 275.917 88.2624 276.519 88.5703C277.127 88.8711 277.589 89.333 277.904 89.9561C278.219 90.5791 278.377 91.3812 278.377 92.3623V100H277.303V92.4268C277.303 91.2666 277.038 90.4144 276.508 89.8701C275.978 89.3258 275.208 89.0537 274.198 89.0537C273.339 89.0537 272.616 89.222 272.028 89.5586C271.441 89.888 270.997 90.3893 270.696 91.0625C270.396 91.7285 270.245 92.5628 270.245 93.5654V100H269.16V83.2852H270.245ZM291.955 88.1191C293.237 88.1191 294.197 88.4414 294.834 89.0859C295.471 89.7305 295.79 90.7581 295.79 92.1689V100H294.952L294.759 97.959H294.694C294.444 98.3958 294.139 98.7861 293.781 99.1299C293.423 99.4665 292.983 99.7314 292.46 99.9248C291.944 100.118 291.314 100.215 290.569 100.215C289.817 100.215 289.173 100.09 288.636 99.8389C288.106 99.5882 287.694 99.223 287.4 98.7432C287.114 98.2633 286.971 97.6797 286.971 96.9922C286.971 95.832 287.451 94.9512 288.41 94.3496C289.37 93.7409 290.748 93.3971 292.546 93.3184L294.716 93.2109V92.3623C294.716 91.1663 294.479 90.3141 294.007 89.8057C293.534 89.2972 292.836 89.043 291.912 89.043C291.311 89.043 290.73 89.1217 290.172 89.2793C289.62 89.4297 289.058 89.6481 288.485 89.9346L288.142 89.0322C288.7 88.7673 289.298 88.5488 289.936 88.377C290.58 88.2051 291.253 88.1191 291.955 88.1191ZM294.705 94.0596L292.664 94.1455C291.182 94.2171 290.054 94.4821 289.28 94.9404C288.507 95.3988 288.12 96.0863 288.12 97.0029C288.12 97.7406 288.349 98.3063 288.808 98.7002C289.273 99.0941 289.918 99.291 290.741 99.291C292.023 99.291 293.001 98.9258 293.674 98.1953C294.354 97.4648 294.698 96.4694 294.705 95.209V94.0596ZM308.616 88.3232V100H307.735L307.574 97.8945H307.51C307.309 98.3242 307.026 98.7145 306.661 99.0654C306.296 99.4163 305.848 99.6956 305.318 99.9033C304.788 100.111 304.173 100.215 303.471 100.215C302.576 100.215 301.824 100.061 301.215 99.7529C300.613 99.4378 300.159 98.9652 299.851 98.335C299.543 97.7048 299.389 96.917 299.389 95.9717V88.3232H300.474V95.8643C300.474 97.0316 300.735 97.891 301.258 98.4424C301.788 98.9938 302.561 99.2695 303.578 99.2695C304.438 99.2695 305.157 99.1048 305.737 98.7754C306.325 98.446 306.769 97.9482 307.069 97.2822C307.377 96.609 307.531 95.7712 307.531 94.7686V88.3232H308.616ZM315.695 99.2803C316.032 99.2803 316.343 99.2552 316.63 99.2051C316.924 99.1549 317.181 99.0905 317.403 99.0117V99.9141C317.174 99.9928 316.906 100.061 316.598 100.118C316.29 100.183 315.95 100.215 315.577 100.215C314.918 100.215 314.37 100.093 313.934 99.8496C313.497 99.599 313.167 99.223 312.945 98.7217C312.723 98.2132 312.612 97.5687 312.612 96.7881V89.2256H310.872V88.5811L312.602 88.248L312.978 85.498H313.697V88.3232H317.339V89.2256H313.697V96.7236C313.697 97.5615 313.851 98.1989 314.159 98.6357C314.474 99.0654 314.986 99.2803 315.695 99.2803ZM329.596 94.1455C329.596 95.0479 329.485 95.8714 329.263 96.6162C329.041 97.3538 328.711 97.9912 328.274 98.5283C327.838 99.0654 327.293 99.4808 326.642 99.7744C325.997 100.068 325.245 100.215 324.386 100.215C323.569 100.215 322.842 100.072 322.205 99.7852C321.568 99.4915 321.027 99.0762 320.583 98.5391C320.146 98.002 319.813 97.3646 319.584 96.627C319.355 95.8822 319.24 95.055 319.24 94.1455C319.24 92.8923 319.448 91.8145 319.863 90.9121C320.286 90.0026 320.887 89.3079 321.668 88.8281C322.456 88.3411 323.397 88.0977 324.493 88.0977C325.625 88.0977 326.566 88.3555 327.318 88.8711C328.077 89.3796 328.647 90.0885 329.026 90.998C329.406 91.9076 329.596 92.9567 329.596 94.1455ZM320.357 94.1455C320.357 95.1696 320.504 96.0648 320.798 96.8311C321.091 97.5973 321.535 98.1953 322.13 98.625C322.731 99.0547 323.491 99.2695 324.407 99.2695C325.345 99.2695 326.115 99.0547 326.717 98.625C327.318 98.1953 327.762 97.5938 328.049 96.8203C328.335 96.0469 328.479 95.1553 328.479 94.1455C328.479 93.1644 328.342 92.2907 328.07 91.5244C327.798 90.7581 327.368 90.1566 326.781 89.7197C326.194 89.2757 325.428 89.0537 324.482 89.0537C323.129 89.0537 322.101 89.5049 321.399 90.4072C320.705 91.3096 320.357 92.5557 320.357 94.1455ZM337.964 88.0977C339.274 88.0977 340.281 88.4414 340.982 89.1289C341.684 89.8164 342.035 90.8942 342.035 92.3623V100H340.961V92.4268C340.961 91.2666 340.696 90.4144 340.166 89.8701C339.636 89.3258 338.866 89.0537 337.856 89.0537C336.575 89.0537 335.593 89.4297 334.913 90.1816C334.24 90.9264 333.903 92.0544 333.903 93.5654V100H332.818V88.3232H333.699L333.86 90.4502H333.925C334.132 90.0133 334.415 89.6195 334.773 89.2686C335.139 88.9105 335.586 88.6276 336.116 88.4199C336.646 88.2051 337.262 88.0977 337.964 88.0977ZM355.506 94.1455C355.506 95.0479 355.395 95.8714 355.173 96.6162C354.951 97.3538 354.621 97.9912 354.185 98.5283C353.748 99.0654 353.203 99.4808 352.552 99.7744C351.907 100.068 351.155 100.215 350.296 100.215C349.479 100.215 348.753 100.072 348.115 99.7852C347.478 99.4915 346.937 99.0762 346.493 98.5391C346.056 98.002 345.723 97.3646 345.494 96.627C345.265 95.8822 345.15 95.055 345.15 94.1455C345.15 92.8923 345.358 91.8145 345.773 90.9121C346.196 90.0026 346.798 89.3079 347.578 88.8281C348.366 88.3411 349.308 88.0977 350.403 88.0977C351.535 88.0977 352.477 88.3555 353.229 88.8711C353.988 89.3796 354.557 90.0885 354.937 90.998C355.316 91.9076 355.506 92.9567 355.506 94.1455ZM346.268 94.1455C346.268 95.1696 346.414 96.0648 346.708 96.8311C347.002 97.5973 347.446 98.1953 348.04 98.625C348.642 99.0547 349.401 99.2695 350.317 99.2695C351.256 99.2695 352.025 99.0547 352.627 98.625C353.229 98.1953 353.673 97.5938 353.959 96.8203C354.245 96.0469 354.389 95.1553 354.389 94.1455C354.389 93.1644 354.253 92.2907 353.98 91.5244C353.708 90.7581 353.279 90.1566 352.691 89.7197C352.104 89.2757 351.338 89.0537 350.393 89.0537C349.039 89.0537 348.011 89.5049 347.31 90.4072C346.615 91.3096 346.268 92.5557 346.268 94.1455ZM370.781 88.0977C371.906 88.0977 372.794 88.4235 373.445 89.0752C374.097 89.7269 374.423 90.7546 374.423 92.1582V100H373.359V92.2012C373.359 91.1198 373.112 90.3249 372.618 89.8164C372.124 89.3079 371.472 89.0537 370.663 89.0537C369.553 89.0537 368.683 89.3796 368.053 90.0312C367.43 90.6758 367.118 91.6927 367.118 93.082V100H366.044V92.2012C366.044 91.4779 365.929 90.887 365.7 90.4287C365.478 89.9632 365.167 89.6195 364.766 89.3975C364.365 89.1683 363.892 89.0537 363.348 89.0537C362.624 89.0537 361.998 89.2041 361.468 89.5049C360.938 89.7985 360.53 90.2568 360.243 90.8799C359.957 91.4958 359.813 92.2799 359.813 93.2324V100H358.729V88.3232H359.609L359.771 90.2354H359.835C360.028 89.8558 360.286 89.5049 360.608 89.1826C360.931 88.8604 361.328 88.599 361.801 88.3984C362.281 88.1979 362.843 88.0977 363.487 88.0977C364.325 88.0977 365.034 88.2874 365.614 88.667C366.201 89.0394 366.61 89.5944 366.839 90.332H366.914C367.229 89.6302 367.716 89.0824 368.375 88.6885C369.041 88.2946 369.843 88.0977 370.781 88.0977ZM387.861 94.1455C387.861 95.0479 387.75 95.8714 387.528 96.6162C387.306 97.3538 386.977 97.9912 386.54 98.5283C386.103 99.0654 385.559 99.4808 384.907 99.7744C384.263 100.068 383.511 100.215 382.651 100.215C381.835 100.215 381.108 100.072 380.471 99.7852C379.833 99.4915 379.293 99.0762 378.849 98.5391C378.412 98.002 378.079 97.3646 377.85 96.627C377.62 95.8822 377.506 95.055 377.506 94.1455C377.506 92.8923 377.714 91.8145 378.129 90.9121C378.551 90.0026 379.153 89.3079 379.934 88.8281C380.721 88.3411 381.663 88.0977 382.759 88.0977C383.89 88.0977 384.832 88.3555 385.584 88.8711C386.343 89.3796 386.912 90.0885 387.292 90.998C387.672 91.9076 387.861 92.9567 387.861 94.1455ZM378.623 94.1455C378.623 95.1696 378.77 96.0648 379.063 96.8311C379.357 97.5973 379.801 98.1953 380.396 98.625C380.997 99.0547 381.756 99.2695 382.673 99.2695C383.611 99.2695 384.381 99.0547 384.982 98.625C385.584 98.1953 386.028 97.5938 386.314 96.8203C386.601 96.0469 386.744 95.1553 386.744 94.1455C386.744 93.1644 386.608 92.2907 386.336 91.5244C386.064 90.7581 385.634 90.1566 385.047 89.7197C384.46 89.2757 383.693 89.0537 382.748 89.0537C381.395 89.0537 380.367 89.5049 379.665 90.4072C378.97 91.3096 378.623 92.5557 378.623 94.1455ZM400.161 88.3232V100H399.28L399.119 97.8945H399.055C398.854 98.3242 398.571 98.7145 398.206 99.0654C397.841 99.4163 397.393 99.6956 396.863 99.9033C396.333 100.111 395.717 100.215 395.016 100.215C394.12 100.215 393.368 100.061 392.76 99.7529C392.158 99.4378 391.703 98.9652 391.396 98.335C391.088 97.7048 390.934 96.917 390.934 95.9717V88.3232H392.019V95.8643C392.019 97.0316 392.28 97.891 392.803 98.4424C393.333 98.9938 394.106 99.2695 395.123 99.2695C395.982 99.2695 396.702 99.1048 397.282 98.7754C397.869 98.446 398.313 97.9482 398.614 97.2822C398.922 96.609 399.076 95.7712 399.076 94.7686V88.3232H400.161ZM411.387 96.9385C411.387 97.6331 411.211 98.2275 410.86 98.7217C410.517 99.2087 410.012 99.5811 409.346 99.8389C408.68 100.09 407.86 100.215 406.886 100.215C406.076 100.215 405.353 100.143 404.716 100C404.078 99.8568 403.545 99.6813 403.115 99.4736V98.3994C403.652 98.6644 404.247 98.8792 404.898 99.0439C405.55 99.2087 406.22 99.291 406.907 99.291C408.11 99.291 408.977 99.0869 409.507 98.6787C410.037 98.2705 410.302 97.7119 410.302 97.0029C410.302 96.5374 410.169 96.1543 409.904 95.8535C409.646 95.5456 409.274 95.2806 408.787 95.0586C408.3 94.8366 407.713 94.611 407.025 94.3818C406.309 94.1383 405.672 93.8984 405.113 93.6621C404.562 93.4186 404.129 93.0999 403.813 92.7061C403.498 92.305 403.341 91.7607 403.341 91.0732C403.341 90.1351 403.717 89.4046 404.469 88.8818C405.221 88.359 406.23 88.0977 407.498 88.0977C408.2 88.0977 408.852 88.1657 409.453 88.3018C410.062 88.4307 410.613 88.599 411.107 88.8066L410.721 89.7305C410.277 89.5228 409.765 89.3545 409.185 89.2256C408.604 89.0967 408.024 89.0322 407.444 89.0322C406.492 89.0322 405.747 89.2005 405.21 89.5371C404.673 89.8737 404.404 90.3678 404.404 91.0195C404.404 91.5208 404.533 91.9147 404.791 92.2012C405.049 92.4805 405.418 92.7168 405.897 92.9102C406.377 93.0964 406.947 93.304 407.605 93.5332C408.286 93.7695 408.912 94.0166 409.485 94.2744C410.065 94.5322 410.527 94.8652 410.871 95.2734C411.215 95.6816 411.387 96.2367 411.387 96.9385ZM54.0156 118.119C55.2975 118.119 56.2572 118.441 56.8945 119.086C57.5319 119.73 57.8506 120.758 57.8506 122.169V130H57.0127L56.8193 127.959H56.7549C56.5042 128.396 56.1999 128.786 55.8418 129.13C55.4837 129.466 55.0433 129.731 54.5205 129.925C54.0049 130.118 53.3747 130.215 52.6299 130.215C51.8779 130.215 51.2334 130.09 50.6963 129.839C50.1663 129.588 49.7546 129.223 49.4609 128.743C49.1745 128.263 49.0312 127.68 49.0312 126.992C49.0312 125.832 49.5111 124.951 50.4707 124.35C51.4303 123.741 52.8089 123.397 54.6064 123.318L56.7764 123.211V122.362C56.7764 121.166 56.54 120.314 56.0674 119.806C55.5947 119.297 54.8965 119.043 53.9727 119.043C53.3711 119.043 52.791 119.122 52.2324 119.279C51.681 119.43 51.1188 119.648 50.5459 119.935L50.2021 119.032C50.7607 118.767 51.3587 118.549 51.9961 118.377C52.6406 118.205 53.3138 118.119 54.0156 118.119ZM56.7656 124.06L54.7246 124.146C53.2422 124.217 52.1143 124.482 51.3408 124.94C50.5674 125.399 50.1807 126.086 50.1807 127.003C50.1807 127.741 50.4098 128.306 50.8682 128.7C51.3337 129.094 51.9782 129.291 52.8018 129.291C54.0837 129.291 55.0612 128.926 55.7344 128.195C56.4147 127.465 56.7585 126.469 56.7656 125.209V124.06ZM64.6934 135.285C63.2253 135.285 62.083 135.002 61.2666 134.437C60.4574 133.871 60.0527 133.079 60.0527 132.062C60.0527 131.275 60.2998 130.594 60.7939 130.021C61.2881 129.456 61.9577 129.116 62.8027 129.001C62.4661 128.843 62.1904 128.629 61.9756 128.356C61.7679 128.084 61.6641 127.769 61.6641 127.411C61.6641 127.01 61.7894 126.638 62.04 126.294C62.2907 125.943 62.6667 125.621 63.168 125.327C62.4948 125.084 61.9648 124.672 61.5781 124.092C61.1914 123.505 60.998 122.799 60.998 121.976C60.998 121.188 61.1663 120.504 61.5029 119.924C61.8395 119.344 62.3158 118.896 62.9316 118.581C63.5547 118.259 64.2887 118.098 65.1338 118.098C65.3916 118.098 65.6243 118.105 65.832 118.119C66.0469 118.133 66.2438 118.159 66.4229 118.194C66.6019 118.223 66.763 118.262 66.9062 118.312H70.6768V119.086L68.2705 119.247C68.5856 119.627 68.8219 120.038 68.9795 120.482C69.137 120.919 69.2158 121.381 69.2158 121.868C69.2158 123.028 68.8506 123.949 68.1201 124.629C67.3896 125.309 66.3727 125.649 65.0693 125.649C64.7113 125.649 64.3604 125.617 64.0166 125.553C63.5798 125.811 63.2467 126.072 63.0176 126.337C62.7884 126.595 62.6738 126.917 62.6738 127.304C62.6738 127.547 62.7454 127.748 62.8887 127.905C63.0319 128.056 63.2396 128.174 63.5117 128.26C63.7839 128.339 64.1169 128.378 64.5107 128.378H66.5625C67.8301 128.378 68.8005 128.636 69.4736 129.151C70.1468 129.667 70.4834 130.426 70.4834 131.429C70.4834 132.653 69.9785 133.602 68.9688 134.275C67.9661 134.949 66.541 135.285 64.6934 135.285ZM64.7686 134.372C65.7926 134.372 66.6449 134.261 67.3252 134.039C68.0127 133.817 68.5283 133.488 68.8721 133.051C69.2158 132.621 69.3877 132.088 69.3877 131.45C69.3877 130.927 69.2624 130.523 69.0117 130.236C68.7611 129.95 68.4066 129.753 67.9482 129.646C67.4899 129.531 66.9492 129.474 66.3262 129.474H64.3711C63.748 129.474 63.193 129.56 62.7061 129.731C62.2191 129.896 61.8395 130.161 61.5674 130.526C61.3024 130.892 61.1699 131.379 61.1699 131.987C61.1699 132.768 61.4743 133.359 62.083 133.76C62.6989 134.168 63.5941 134.372 64.7686 134.372ZM65.1123 124.779C66.0791 124.779 66.8203 124.536 67.3359 124.049C67.8516 123.562 68.1094 122.856 68.1094 121.933C68.1094 120.944 67.8444 120.203 67.3145 119.709C66.7845 119.215 66.0433 118.968 65.0908 118.968C64.167 118.968 63.4401 119.233 62.9102 119.763C62.3874 120.285 62.126 121.023 62.126 121.976C62.126 122.864 62.3766 123.555 62.8779 124.049C63.3792 124.536 64.124 124.779 65.1123 124.779ZM77.4551 118.098C78.4505 118.098 79.2777 118.33 79.9365 118.796C80.6025 119.261 81.0967 119.899 81.4189 120.708C81.7484 121.517 81.9131 122.445 81.9131 123.49V124.274H73.4805C73.4805 125.879 73.8493 127.11 74.5869 127.97C75.3317 128.829 76.3952 129.259 77.7773 129.259C78.5007 129.259 79.1273 129.201 79.6572 129.087C80.1943 128.965 80.7887 128.761 81.4404 128.475V129.474C80.8675 129.731 80.2946 129.918 79.7217 130.032C79.1488 130.154 78.4899 130.215 77.7451 130.215C76.5635 130.215 75.5716 129.971 74.7695 129.484C73.9746 128.99 73.373 128.296 72.9648 127.4C72.5638 126.505 72.3633 125.46 72.3633 124.264C72.3633 123.096 72.5566 122.047 72.9434 121.116C73.3372 120.185 73.9102 119.451 74.6621 118.914C75.4212 118.37 76.3522 118.098 77.4551 118.098ZM77.4443 119.032C76.3271 119.032 75.4212 119.405 74.7266 120.149C74.0391 120.887 73.6344 121.954 73.5127 123.351H80.7852C80.7852 122.498 80.6634 121.746 80.4199 121.095C80.1764 120.443 79.8076 119.938 79.3135 119.58C78.8265 119.215 78.2035 119.032 77.4443 119.032ZM90.2705 118.098C91.5811 118.098 92.5872 118.441 93.2891 119.129C93.9909 119.816 94.3418 120.894 94.3418 122.362V130H93.2676V122.427C93.2676 121.267 93.0026 120.414 92.4727 119.87C91.9427 119.326 91.1729 119.054 90.1631 119.054C88.8812 119.054 87.9001 119.43 87.2197 120.182C86.5465 120.926 86.21 122.054 86.21 123.565V130H85.125V118.323H86.0059L86.167 120.45H86.2314C86.4391 120.013 86.722 119.619 87.0801 119.269C87.4453 118.91 87.8929 118.628 88.4229 118.42C88.9528 118.205 89.5687 118.098 90.2705 118.098ZM101.281 129.28C101.618 129.28 101.929 129.255 102.216 129.205C102.509 129.155 102.767 129.09 102.989 129.012V129.914C102.76 129.993 102.492 130.061 102.184 130.118C101.876 130.183 101.535 130.215 101.163 130.215C100.504 130.215 99.9564 130.093 99.5195 129.85C99.0827 129.599 98.7533 129.223 98.5312 128.722C98.3092 128.213 98.1982 127.569 98.1982 126.788V119.226H96.458V118.581L98.1875 118.248L98.5635 115.498H99.2832V118.323H102.925V119.226H99.2832V126.724C99.2832 127.562 99.4372 128.199 99.7451 128.636C100.06 129.065 100.572 129.28 101.281 129.28ZM115.633 118.098C116.628 118.098 117.455 118.33 118.114 118.796C118.78 119.261 119.274 119.899 119.597 120.708C119.926 121.517 120.091 122.445 120.091 123.49V124.274H111.658C111.658 125.879 112.027 127.11 112.765 127.97C113.509 128.829 114.573 129.259 115.955 129.259C116.678 129.259 117.305 129.201 117.835 129.087C118.372 128.965 118.966 128.761 119.618 128.475V129.474C119.045 129.731 118.472 129.918 117.899 130.032C117.326 130.154 116.668 130.215 115.923 130.215C114.741 130.215 113.749 129.971 112.947 129.484C112.152 128.99 111.551 128.296 111.143 127.4C110.742 126.505 110.541 125.46 110.541 124.264C110.541 123.096 110.734 122.047 111.121 121.116C111.515 120.185 112.088 119.451 112.84 118.914C113.599 118.37 114.53 118.098 115.633 118.098ZM115.622 119.032C114.505 119.032 113.599 119.405 112.904 120.149C112.217 120.887 111.812 121.954 111.69 123.351H118.963C118.963 122.498 118.841 121.746 118.598 121.095C118.354 120.443 117.985 119.938 117.491 119.58C117.004 119.215 116.381 119.032 115.622 119.032ZM125.849 130L121.369 118.323H122.519L125.516 126.283C125.702 126.763 125.867 127.225 126.01 127.669C126.16 128.106 126.285 128.503 126.386 128.861H126.439C126.554 128.503 126.683 128.102 126.826 127.658C126.977 127.214 127.141 126.756 127.32 126.283L130.317 118.323H131.478L126.987 130H125.849ZM137.848 118.098C138.843 118.098 139.67 118.33 140.329 118.796C140.995 119.261 141.489 119.899 141.812 120.708C142.141 121.517 142.306 122.445 142.306 123.49V124.274H133.873C133.873 125.879 134.242 127.11 134.979 127.97C135.724 128.829 136.788 129.259 138.17 129.259C138.893 129.259 139.52 129.201 140.05 129.087C140.587 128.965 141.181 128.761 141.833 128.475V129.474C141.26 129.731 140.687 129.918 140.114 130.032C139.541 130.154 138.882 130.215 138.138 130.215C136.956 130.215 135.964 129.971 135.162 129.484C134.367 128.99 133.766 128.296 133.357 127.4C132.956 126.505 132.756 125.46 132.756 124.264C132.756 123.096 132.949 122.047 133.336 121.116C133.73 120.185 134.303 119.451 135.055 118.914C135.814 118.37 136.745 118.098 137.848 118.098ZM137.837 119.032C136.72 119.032 135.814 119.405 135.119 120.149C134.432 120.887 134.027 121.954 133.905 123.351H141.178C141.178 122.498 141.056 121.746 140.812 121.095C140.569 120.443 140.2 119.938 139.706 119.58C139.219 119.215 138.596 119.032 137.837 119.032ZM150.663 118.098C151.974 118.098 152.98 118.441 153.682 119.129C154.383 119.816 154.734 120.894 154.734 122.362V130H153.66V122.427C153.66 121.267 153.395 120.414 152.865 119.87C152.335 119.326 151.565 119.054 150.556 119.054C149.274 119.054 148.293 119.43 147.612 120.182C146.939 120.926 146.603 122.054 146.603 123.565V130H145.518V118.323H146.398L146.56 120.45H146.624C146.832 120.013 147.115 119.619 147.473 119.269C147.838 118.91 148.285 118.628 148.815 118.42C149.345 118.205 149.961 118.098 150.663 118.098ZM161.674 129.28C162.01 129.28 162.322 129.255 162.608 129.205C162.902 129.155 163.16 129.09 163.382 129.012V129.914C163.153 129.993 162.884 130.061 162.576 130.118C162.268 130.183 161.928 130.215 161.556 130.215C160.897 130.215 160.349 130.093 159.912 129.85C159.475 129.599 159.146 129.223 158.924 128.722C158.702 128.213 158.591 127.569 158.591 126.788V119.226H156.851V118.581L158.58 118.248L158.956 115.498H159.676V118.323H163.317V119.226H159.676V126.724C159.676 127.562 159.83 128.199 160.138 128.636C160.453 129.065 160.965 129.28 161.674 129.28ZM173.189 126.938C173.189 127.633 173.014 128.228 172.663 128.722C172.319 129.209 171.814 129.581 171.148 129.839C170.482 130.09 169.662 130.215 168.688 130.215C167.879 130.215 167.156 130.143 166.519 130C165.881 129.857 165.348 129.681 164.918 129.474V128.399C165.455 128.664 166.049 128.879 166.701 129.044C167.353 129.209 168.022 129.291 168.71 129.291C169.913 129.291 170.78 129.087 171.31 128.679C171.84 128.271 172.104 127.712 172.104 127.003C172.104 126.537 171.972 126.154 171.707 125.854C171.449 125.546 171.077 125.281 170.59 125.059C170.103 124.837 169.516 124.611 168.828 124.382C168.112 124.138 167.475 123.898 166.916 123.662C166.365 123.419 165.931 123.1 165.616 122.706C165.301 122.305 165.144 121.761 165.144 121.073C165.144 120.135 165.52 119.405 166.271 118.882C167.023 118.359 168.033 118.098 169.301 118.098C170.003 118.098 170.654 118.166 171.256 118.302C171.865 118.431 172.416 118.599 172.91 118.807L172.523 119.73C172.079 119.523 171.567 119.354 170.987 119.226C170.407 119.097 169.827 119.032 169.247 119.032C168.295 119.032 167.55 119.201 167.013 119.537C166.476 119.874 166.207 120.368 166.207 121.02C166.207 121.521 166.336 121.915 166.594 122.201C166.852 122.48 167.22 122.717 167.7 122.91C168.18 123.096 168.749 123.304 169.408 123.533C170.089 123.77 170.715 124.017 171.288 124.274C171.868 124.532 172.33 124.865 172.674 125.273C173.018 125.682 173.189 126.237 173.189 126.938Z" fill="#146C94"/>
<path d="M50.1875 152.844V156.297C50.1875 156.594 50.1823 156.919 50.1719 157.273C50.1615 157.628 50.151 157.922 50.1406 158.156H50.1875C50.3906 157.63 50.7448 157.195 51.25 156.852C51.7552 156.508 52.3854 156.336 53.1406 156.336C54.2448 156.336 55.0964 156.708 55.6953 157.453C56.2995 158.198 56.6016 159.289 56.6016 160.727C56.6016 161.607 56.4661 162.38 56.1953 163.047C55.9245 163.708 55.5208 164.227 54.9844 164.602C54.4531 164.971 53.7865 165.156 52.9844 165.156C52.2604 165.156 51.6693 165.005 51.2109 164.703C50.7526 164.396 50.4193 164.013 50.2109 163.555H50.1484L50 165H49.3984V152.844H50.1875ZM53.0547 157.023C52.3828 157.023 51.8359 157.169 51.4141 157.461C50.9922 157.747 50.6823 158.167 50.4844 158.719C50.2865 159.271 50.1875 159.945 50.1875 160.742V160.867C50.1875 162.039 50.401 162.932 50.8281 163.547C51.2552 164.161 51.9479 164.469 52.9062 164.469C53.8542 164.469 54.5703 164.146 55.0547 163.5C55.5443 162.849 55.7891 161.924 55.7891 160.727C55.7891 159.503 55.5625 158.581 55.1094 157.961C54.6562 157.336 53.9714 157.023 53.0547 157.023ZM57.5391 156.508H58.375L60.4375 161.898C60.5625 162.216 60.6719 162.51 60.7656 162.781C60.8646 163.047 60.9505 163.292 61.0234 163.516C61.0964 163.734 61.1562 163.935 61.2031 164.117H61.25C61.3281 163.878 61.4323 163.57 61.5625 163.195C61.6927 162.815 61.8411 162.393 62.0078 161.93L64.0469 156.508H64.8906L61.0156 166.594C60.8281 167.083 60.6224 167.497 60.3984 167.836C60.1745 168.18 59.9115 168.438 59.6094 168.609C59.3073 168.786 58.9427 168.875 58.5156 168.875C58.3229 168.875 58.1484 168.859 57.9922 168.828C57.8359 168.802 57.6849 168.766 57.5391 168.719V168.039C57.6745 168.081 57.8125 168.115 57.9531 168.141C58.099 168.172 58.2578 168.188 58.4297 168.188C58.7266 168.188 58.9818 168.125 59.1953 168C59.4141 167.88 59.6094 167.693 59.7812 167.438C59.9531 167.182 60.1146 166.857 60.2656 166.461L60.8438 164.953L57.5391 156.508ZM50.1875 174.844V178.297C50.1875 178.594 50.1823 178.919 50.1719 179.273C50.1615 179.628 50.151 179.922 50.1406 180.156H50.1875C50.3906 179.63 50.7448 179.195 51.25 178.852C51.7552 178.508 52.3854 178.336 53.1406 178.336C54.2448 178.336 55.0964 178.708 55.6953 179.453C56.2995 180.198 56.6016 181.289 56.6016 182.727C56.6016 183.607 56.4661 184.38 56.1953 185.047C55.9245 185.708 55.5208 186.227 54.9844 186.602C54.4531 186.971 53.7865 187.156 52.9844 187.156C52.2604 187.156 51.6693 187.005 51.2109 186.703C50.7526 186.396 50.4193 186.013 50.2109 185.555H50.1484L50 187H49.3984V174.844H50.1875ZM53.0547 179.023C52.3828 179.023 51.8359 179.169 51.4141 179.461C50.9922 179.747 50.6823 180.167 50.4844 180.719C50.2865 181.271 50.1875 181.945 50.1875 182.742V182.867C50.1875 184.039 50.401 184.932 50.8281 185.547C51.2552 186.161 51.9479 186.469 52.9062 186.469C53.8542 186.469 54.5703 186.146 55.0547 185.5C55.5443 184.849 55.7891 183.924 55.7891 182.727C55.7891 181.503 55.5625 180.581 55.1094 179.961C54.6562 179.336 53.9714 179.023 53.0547 179.023ZM57.5391 178.508H58.375L60.4375 183.898C60.5625 184.216 60.6719 184.51 60.7656 184.781C60.8646 185.047 60.9505 185.292 61.0234 185.516C61.0964 185.734 61.1562 185.935 61.2031 186.117H61.25C61.3281 185.878 61.4323 185.57 61.5625 185.195C61.6927 184.815 61.8411 184.393 62.0078 183.93L64.0469 178.508H64.8906L61.0156 188.594C60.8281 189.083 60.6224 189.497 60.3984 189.836C60.1745 190.18 59.9115 190.438 59.6094 190.609C59.3073 190.786 58.9427 190.875 58.5156 190.875C58.3229 190.875 58.1484 190.859 57.9922 190.828C57.8359 190.802 57.6849 190.766 57.5391 190.719V190.039C57.6745 190.081 57.8125 190.115 57.9531 190.141C58.099 190.172 58.2578 190.188 58.4297 190.188C58.7266 190.188 58.9818 190.125 59.1953 190C59.4141 189.88 59.6094 189.693 59.7812 189.438C59.9531 189.182 60.1146 188.857 60.2656 188.461L60.8438 186.953L57.5391 178.508ZM50.1875 196.844V200.297C50.1875 200.594 50.1823 200.919 50.1719 201.273C50.1615 201.628 50.151 201.922 50.1406 202.156H50.1875C50.3906 201.63 50.7448 201.195 51.25 200.852C51.7552 200.508 52.3854 200.336 53.1406 200.336C54.2448 200.336 55.0964 200.708 55.6953 201.453C56.2995 202.198 56.6016 203.289 56.6016 204.727C56.6016 205.607 56.4661 206.38 56.1953 207.047C55.9245 207.708 55.5208 208.227 54.9844 208.602C54.4531 208.971 53.7865 209.156 52.9844 209.156C52.2604 209.156 51.6693 209.005 51.2109 208.703C50.7526 208.396 50.4193 208.013 50.2109 207.555H50.1484L50 209H49.3984V196.844H50.1875ZM53.0547 201.023C52.3828 201.023 51.8359 201.169 51.4141 201.461C50.9922 201.747 50.6823 202.167 50.4844 202.719C50.2865 203.271 50.1875 203.945 50.1875 204.742V204.867C50.1875 206.039 50.401 206.932 50.8281 207.547C51.2552 208.161 51.9479 208.469 52.9062 208.469C53.8542 208.469 54.5703 208.146 55.0547 207.5C55.5443 206.849 55.7891 205.924 55.7891 204.727C55.7891 203.503 55.5625 202.581 55.1094 201.961C54.6562 201.336 53.9714 201.023 53.0547 201.023ZM57.5391 200.508H58.375L60.4375 205.898C60.5625 206.216 60.6719 206.51 60.7656 206.781C60.8646 207.047 60.9505 207.292 61.0234 207.516C61.0964 207.734 61.1562 207.935 61.2031 208.117H61.25C61.3281 207.878 61.4323 207.57 61.5625 207.195C61.6927 206.815 61.8411 206.393 62.0078 205.93L64.0469 200.508H64.8906L61.0156 210.594C60.8281 211.083 60.6224 211.497 60.3984 211.836C60.1745 212.18 59.9115 212.438 59.6094 212.609C59.3073 212.786 58.9427 212.875 58.5156 212.875C58.3229 212.875 58.1484 212.859 57.9922 212.828C57.8359 212.802 57.6849 212.766 57.5391 212.719V212.039C57.6745 212.081 57.8125 212.115 57.9531 212.141C58.099 212.172 58.2578 212.188 58.4297 212.188C58.7266 212.188 58.9818 212.125 59.1953 212C59.4141 211.88 59.6094 211.693 59.7812 211.438C59.9531 211.182 60.1146 210.857 60.2656 210.461L60.8438 208.953L57.5391 200.508ZM50.1875 218.844V222.297C50.1875 222.594 50.1823 222.919 50.1719 223.273C50.1615 223.628 50.151 223.922 50.1406 224.156H50.1875C50.3906 223.63 50.7448 223.195 51.25 222.852C51.7552 222.508 52.3854 222.336 53.1406 222.336C54.2448 222.336 55.0964 222.708 55.6953 223.453C56.2995 224.198 56.6016 225.289 56.6016 226.727C56.6016 227.607 56.4661 228.38 56.1953 229.047C55.9245 229.708 55.5208 230.227 54.9844 230.602C54.4531 230.971 53.7865 231.156 52.9844 231.156C52.2604 231.156 51.6693 231.005 51.2109 230.703C50.7526 230.396 50.4193 230.013 50.2109 229.555H50.1484L50 231H49.3984V218.844H50.1875ZM53.0547 223.023C52.3828 223.023 51.8359 223.169 51.4141 223.461C50.9922 223.747 50.6823 224.167 50.4844 224.719C50.2865 225.271 50.1875 225.945 50.1875 226.742V226.867C50.1875 228.039 50.401 228.932 50.8281 229.547C51.2552 230.161 51.9479 230.469 52.9062 230.469C53.8542 230.469 54.5703 230.146 55.0547 229.5C55.5443 228.849 55.7891 227.924 55.7891 226.727C55.7891 225.503 55.5625 224.581 55.1094 223.961C54.6562 223.336 53.9714 223.023 53.0547 223.023ZM57.5391 222.508H58.375L60.4375 227.898C60.5625 228.216 60.6719 228.51 60.7656 228.781C60.8646 229.047 60.9505 229.292 61.0234 229.516C61.0964 229.734 61.1562 229.935 61.2031 230.117H61.25C61.3281 229.878 61.4323 229.57 61.5625 229.195C61.6927 228.815 61.8411 228.393 62.0078 227.93L64.0469 222.508H64.8906L61.0156 232.594C60.8281 233.083 60.6224 233.497 60.3984 233.836C60.1745 234.18 59.9115 234.438 59.6094 234.609C59.3073 234.786 58.9427 234.875 58.5156 234.875C58.3229 234.875 58.1484 234.859 57.9922 234.828C57.8359 234.802 57.6849 234.766 57.5391 234.719V234.039C57.6745 234.081 57.8125 234.115 57.9531 234.141C58.099 234.172 58.2578 234.188 58.4297 234.188C58.7266 234.188 58.9818 234.125 59.1953 234C59.4141 233.88 59.6094 233.693 59.7812 233.438C59.9531 233.182 60.1146 232.857 60.2656 232.461L60.8438 230.953L57.5391 222.508Z" fill="#666666"/>
<path d="M74.2031 156.344C75.2969 156.344 76.1432 156.711 76.7422 157.445C77.3464 158.18 77.6484 159.263 77.6484 160.695C77.6484 161.654 77.5052 162.466 77.2188 163.133C76.9323 163.794 76.5234 164.297 75.9922 164.641C75.4661 164.984 74.8333 165.156 74.0938 165.156C73.5833 165.156 73.138 165.081 72.7578 164.93C72.3828 164.773 72.0703 164.565 71.8203 164.305C71.5703 164.039 71.3776 163.747 71.2422 163.43H71.1875C71.2031 163.727 71.2161 164.036 71.2266 164.359C71.237 164.682 71.2422 164.987 71.2422 165.273V168.758H70.4453V156.508H71.1016L71.1953 158.203H71.2422C71.3828 157.88 71.5807 157.576 71.8359 157.289C72.0911 157.003 72.4141 156.773 72.8047 156.602C73.1953 156.43 73.6615 156.344 74.2031 156.344ZM74.1016 157.039C73.4609 157.039 72.9271 157.18 72.5 157.461C72.0781 157.737 71.763 158.143 71.5547 158.68C71.3516 159.211 71.2474 159.862 71.2422 160.633V160.766C71.2422 161.594 71.3438 162.284 71.5469 162.836C71.7552 163.383 72.0651 163.792 72.4766 164.062C72.8932 164.333 73.4089 164.469 74.0234 164.469C74.6276 164.469 75.138 164.32 75.5547 164.023C75.9714 163.727 76.2891 163.297 76.5078 162.734C76.7266 162.172 76.8359 161.49 76.8359 160.688C76.8359 159.495 76.6068 158.589 76.1484 157.969C75.6953 157.349 75.013 157.039 74.1016 157.039ZM82.9375 156.359C83.8698 156.359 84.5677 156.594 85.0312 157.062C85.4948 157.531 85.7266 158.279 85.7266 159.305V165H85.1172L84.9766 163.516H84.9297C84.7474 163.833 84.526 164.117 84.2656 164.367C84.0052 164.612 83.6849 164.805 83.3047 164.945C82.9297 165.086 82.4714 165.156 81.9297 165.156C81.3828 165.156 80.9141 165.065 80.5234 164.883C80.138 164.701 79.8385 164.435 79.625 164.086C79.4167 163.737 79.3125 163.312 79.3125 162.812C79.3125 161.969 79.6615 161.328 80.3594 160.891C81.0573 160.448 82.0599 160.198 83.3672 160.141L84.9453 160.062V159.445C84.9453 158.576 84.7734 157.956 84.4297 157.586C84.0859 157.216 83.5781 157.031 82.9062 157.031C82.4688 157.031 82.0469 157.089 81.6406 157.203C81.2396 157.312 80.8307 157.471 80.4141 157.68L80.1641 157.023C80.5703 156.831 81.0052 156.672 81.4688 156.547C81.9375 156.422 82.4271 156.359 82.9375 156.359ZM84.9375 160.68L83.4531 160.742C82.375 160.794 81.5547 160.987 80.9922 161.32C80.4297 161.654 80.1484 162.154 80.1484 162.82C80.1484 163.357 80.3151 163.768 80.6484 164.055C80.987 164.341 81.4557 164.484 82.0547 164.484C82.987 164.484 83.6979 164.219 84.1875 163.688C84.6823 163.156 84.9323 162.432 84.9375 161.516V160.68ZM87.0547 156.508H87.8906L89.9531 161.898C90.0781 162.216 90.1875 162.51 90.2812 162.781C90.3802 163.047 90.4661 163.292 90.5391 163.516C90.612 163.734 90.6719 163.935 90.7188 164.117H90.7656C90.8438 163.878 90.9479 163.57 91.0781 163.195C91.2083 162.815 91.3568 162.393 91.5234 161.93L93.5625 156.508H94.4062L90.5312 166.594C90.3438 167.083 90.138 167.497 89.9141 167.836C89.6901 168.18 89.4271 168.438 89.125 168.609C88.8229 168.786 88.4583 168.875 88.0312 168.875C87.8385 168.875 87.6641 168.859 87.5078 168.828C87.3516 168.802 87.2005 168.766 87.0547 168.719V168.039C87.1901 168.081 87.3281 168.115 87.4688 168.141C87.6146 168.172 87.7734 168.188 87.9453 168.188C88.2422 168.188 88.4974 168.125 88.7109 168C88.9297 167.88 89.125 167.693 89.2969 167.438C89.4688 167.182 89.6302 166.857 89.7812 166.461L90.3594 164.953L87.0547 156.508ZM96.6016 165H95.8047V152.844H96.6016V165ZM106.469 160.742C106.469 161.398 106.388 161.997 106.227 162.539C106.065 163.076 105.826 163.539 105.508 163.93C105.19 164.32 104.794 164.622 104.32 164.836C103.852 165.049 103.305 165.156 102.68 165.156C102.086 165.156 101.557 165.052 101.094 164.844C100.63 164.63 100.237 164.328 99.9141 163.938C99.5964 163.547 99.3542 163.083 99.1875 162.547C99.0208 162.005 98.9375 161.404 98.9375 160.742C98.9375 159.831 99.0885 159.047 99.3906 158.391C99.6979 157.729 100.135 157.224 100.703 156.875C101.276 156.521 101.961 156.344 102.758 156.344C103.581 156.344 104.266 156.531 104.812 156.906C105.365 157.276 105.779 157.792 106.055 158.453C106.331 159.115 106.469 159.878 106.469 160.742ZM99.75 160.742C99.75 161.487 99.8568 162.138 100.07 162.695C100.284 163.253 100.607 163.688 101.039 164C101.477 164.312 102.029 164.469 102.695 164.469C103.378 164.469 103.938 164.312 104.375 164C104.812 163.688 105.135 163.25 105.344 162.688C105.552 162.125 105.656 161.477 105.656 160.742C105.656 160.029 105.557 159.393 105.359 158.836C105.161 158.279 104.849 157.841 104.422 157.523C103.995 157.201 103.438 157.039 102.75 157.039C101.766 157.039 101.018 157.367 100.508 158.023C100.003 158.68 99.75 159.586 99.75 160.742ZM111.781 156.359C112.714 156.359 113.411 156.594 113.875 157.062C114.339 157.531 114.57 158.279 114.57 159.305V165H113.961L113.82 163.516H113.773C113.591 163.833 113.37 164.117 113.109 164.367C112.849 164.612 112.529 164.805 112.148 164.945C111.773 165.086 111.315 165.156 110.773 165.156C110.227 165.156 109.758 165.065 109.367 164.883C108.982 164.701 108.682 164.435 108.469 164.086C108.26 163.737 108.156 163.312 108.156 162.812C108.156 161.969 108.505 161.328 109.203 160.891C109.901 160.448 110.904 160.198 112.211 160.141L113.789 160.062V159.445C113.789 158.576 113.617 157.956 113.273 157.586C112.93 157.216 112.422 157.031 111.75 157.031C111.312 157.031 110.891 157.089 110.484 157.203C110.083 157.312 109.674 157.471 109.258 157.68L109.008 157.023C109.414 156.831 109.849 156.672 110.312 156.547C110.781 156.422 111.271 156.359 111.781 156.359ZM113.781 160.68L112.297 160.742C111.219 160.794 110.398 160.987 109.836 161.32C109.273 161.654 108.992 162.154 108.992 162.82C108.992 163.357 109.159 163.768 109.492 164.055C109.831 164.341 110.299 164.484 110.898 164.484C111.831 164.484 112.542 164.219 113.031 163.688C113.526 163.156 113.776 162.432 113.781 161.516V160.68ZM120.375 165.156C119.214 165.156 118.328 164.792 117.719 164.062C117.115 163.328 116.812 162.26 116.812 160.859C116.812 159.391 117.133 158.271 117.773 157.5C118.414 156.729 119.307 156.344 120.453 156.344C120.943 156.344 121.367 156.419 121.727 156.57C122.091 156.721 122.396 156.927 122.641 157.188C122.891 157.443 123.083 157.734 123.219 158.062H123.281C123.26 157.786 123.245 157.49 123.234 157.172C123.224 156.854 123.219 156.562 123.219 156.297V152.844H124.008V165H123.367L123.266 163.445H123.219C123.078 163.758 122.883 164.044 122.633 164.305C122.388 164.565 122.081 164.773 121.711 164.93C121.341 165.081 120.896 165.156 120.375 165.156ZM120.461 164.469C121.461 164.469 122.172 164.159 122.594 163.539C123.016 162.914 123.227 162.023 123.227 160.867V160.742C123.227 159.544 123.016 158.628 122.594 157.992C122.172 157.352 121.484 157.031 120.531 157.031C119.589 157.031 118.867 157.359 118.367 158.016C117.872 158.672 117.625 159.625 117.625 160.875C117.625 162.052 117.857 162.945 118.32 163.555C118.789 164.164 119.503 164.469 120.461 164.469ZM73.8203 178.359C74.0443 178.359 74.2552 178.372 74.4531 178.398C74.651 178.424 74.8359 178.461 75.0078 178.508L74.8828 179.234C74.7109 179.188 74.5365 179.154 74.3594 179.133C74.1823 179.107 73.9922 179.094 73.7891 179.094C73.388 179.094 73.0286 179.169 72.7109 179.32C72.3984 179.471 72.1328 179.688 71.9141 179.969C71.6953 180.25 71.5286 180.589 71.4141 180.984C71.2995 181.38 71.2422 181.823 71.2422 182.312V187H70.4453V178.508H71.125L71.2031 180.109H71.25C71.3802 179.781 71.5625 179.487 71.7969 179.227C72.0365 178.961 72.3255 178.75 72.6641 178.594C73.0026 178.438 73.388 178.359 73.8203 178.359ZM79.8906 178.344C80.6146 178.344 81.2161 178.513 81.6953 178.852C82.1797 179.19 82.5391 179.654 82.7734 180.242C83.013 180.831 83.1328 181.505 83.1328 182.266V182.836H77C77 184.003 77.2682 184.898 77.8047 185.523C78.3464 186.148 79.1198 186.461 80.125 186.461C80.651 186.461 81.1068 186.419 81.4922 186.336C81.8828 186.247 82.3151 186.099 82.7891 185.891V186.617C82.3724 186.805 81.9557 186.94 81.5391 187.023C81.1224 187.112 80.6432 187.156 80.1016 187.156C79.2422 187.156 78.5208 186.979 77.9375 186.625C77.3594 186.266 76.9219 185.76 76.625 185.109C76.3333 184.458 76.1875 183.698 76.1875 182.828C76.1875 181.979 76.3281 181.216 76.6094 180.539C76.8958 179.862 77.3125 179.328 77.8594 178.938C78.4115 178.542 79.0885 178.344 79.8906 178.344ZM79.8828 179.023C79.0703 179.023 78.4115 179.294 77.9062 179.836C77.4062 180.372 77.112 181.148 77.0234 182.164H82.3125C82.3125 181.544 82.224 180.997 82.0469 180.523C81.8698 180.049 81.6016 179.682 81.2422 179.422C80.888 179.156 80.4349 179.023 79.8828 179.023ZM90.7812 184.773C90.7812 185.279 90.6536 185.711 90.3984 186.07C90.1484 186.424 89.7812 186.695 89.2969 186.883C88.8125 187.065 88.2161 187.156 87.5078 187.156C86.9193 187.156 86.3932 187.104 85.9297 187C85.4661 186.896 85.0781 186.768 84.7656 186.617V185.836C85.1562 186.029 85.5885 186.185 86.0625 186.305C86.5365 186.424 87.0234 186.484 87.5234 186.484C88.3984 186.484 89.0286 186.336 89.4141 186.039C89.7995 185.742 89.9922 185.336 89.9922 184.82C89.9922 184.482 89.8958 184.203 89.7031 183.984C89.5156 183.76 89.2448 183.568 88.8906 183.406C88.5365 183.245 88.1094 183.081 87.6094 182.914C87.0885 182.737 86.625 182.562 86.2188 182.391C85.8177 182.214 85.5026 181.982 85.2734 181.695C85.0443 181.404 84.9297 181.008 84.9297 180.508C84.9297 179.826 85.2031 179.294 85.75 178.914C86.2969 178.534 87.0312 178.344 87.9531 178.344C88.4635 178.344 88.9375 178.393 89.375 178.492C89.8177 178.586 90.2188 178.708 90.5781 178.859L90.2969 179.531C89.974 179.38 89.6016 179.258 89.1797 179.164C88.7578 179.07 88.3359 179.023 87.9141 179.023C87.2214 179.023 86.6797 179.146 86.2891 179.391C85.8984 179.635 85.7031 179.995 85.7031 180.469C85.7031 180.833 85.7969 181.12 85.9844 181.328C86.1719 181.531 86.4401 181.703 86.7891 181.844C87.138 181.979 87.5521 182.13 88.0312 182.297C88.526 182.469 88.9818 182.648 89.3984 182.836C89.8203 183.023 90.1562 183.266 90.4062 183.562C90.6562 183.859 90.7812 184.263 90.7812 184.773ZM96.6875 178.344C97.7812 178.344 98.6276 178.711 99.2266 179.445C99.8307 180.18 100.133 181.263 100.133 182.695C100.133 183.654 99.9896 184.466 99.7031 185.133C99.4167 185.794 99.0078 186.297 98.4766 186.641C97.9505 186.984 97.3177 187.156 96.5781 187.156C96.0677 187.156 95.6224 187.081 95.2422 186.93C94.8672 186.773 94.5547 186.565 94.3047 186.305C94.0547 186.039 93.862 185.747 93.7266 185.43H93.6719C93.6875 185.727 93.7005 186.036 93.7109 186.359C93.7214 186.682 93.7266 186.987 93.7266 187.273V190.758H92.9297V178.508H93.5859L93.6797 180.203H93.7266C93.8672 179.88 94.0651 179.576 94.3203 179.289C94.5755 179.003 94.8984 178.773 95.2891 178.602C95.6797 178.43 96.1458 178.344 96.6875 178.344ZM96.5859 179.039C95.9453 179.039 95.4115 179.18 94.9844 179.461C94.5625 179.737 94.2474 180.143 94.0391 180.68C93.8359 181.211 93.7318 181.862 93.7266 182.633V182.766C93.7266 183.594 93.8281 184.284 94.0312 184.836C94.2396 185.383 94.5495 185.792 94.9609 186.062C95.3776 186.333 95.8932 186.469 96.5078 186.469C97.112 186.469 97.6224 186.32 98.0391 186.023C98.4557 185.727 98.7734 185.297 98.9922 184.734C99.2109 184.172 99.3203 183.49 99.3203 182.688C99.3203 181.495 99.0911 180.589 98.6328 179.969C98.1797 179.349 97.4974 179.039 96.5859 179.039ZM109.5 182.742C109.5 183.398 109.419 183.997 109.258 184.539C109.096 185.076 108.857 185.539 108.539 185.93C108.221 186.32 107.826 186.622 107.352 186.836C106.883 187.049 106.336 187.156 105.711 187.156C105.117 187.156 104.589 187.052 104.125 186.844C103.661 186.63 103.268 186.328 102.945 185.938C102.628 185.547 102.385 185.083 102.219 184.547C102.052 184.005 101.969 183.404 101.969 182.742C101.969 181.831 102.12 181.047 102.422 180.391C102.729 179.729 103.167 179.224 103.734 178.875C104.307 178.521 104.992 178.344 105.789 178.344C106.612 178.344 107.297 178.531 107.844 178.906C108.396 179.276 108.81 179.792 109.086 180.453C109.362 181.115 109.5 181.878 109.5 182.742ZM102.781 182.742C102.781 183.487 102.888 184.138 103.102 184.695C103.315 185.253 103.638 185.688 104.07 186C104.508 186.312 105.06 186.469 105.727 186.469C106.409 186.469 106.969 186.312 107.406 186C107.844 185.688 108.167 185.25 108.375 184.688C108.583 184.125 108.688 183.477 108.688 182.742C108.688 182.029 108.589 181.393 108.391 180.836C108.193 180.279 107.88 179.841 107.453 179.523C107.026 179.201 106.469 179.039 105.781 179.039C104.797 179.039 104.049 179.367 103.539 180.023C103.034 180.68 102.781 181.586 102.781 182.742ZM115.586 178.344C116.539 178.344 117.271 178.594 117.781 179.094C118.292 179.594 118.547 180.378 118.547 181.445V187H117.766V181.492C117.766 180.648 117.573 180.029 117.188 179.633C116.802 179.237 116.242 179.039 115.508 179.039C114.576 179.039 113.862 179.312 113.367 179.859C112.878 180.401 112.633 181.221 112.633 182.32V187H111.844V178.508H112.484L112.602 180.055H112.648C112.799 179.737 113.005 179.451 113.266 179.195C113.531 178.935 113.857 178.729 114.242 178.578C114.628 178.422 115.076 178.344 115.586 178.344ZM126.609 184.773C126.609 185.279 126.482 185.711 126.227 186.07C125.977 186.424 125.609 186.695 125.125 186.883C124.641 187.065 124.044 187.156 123.336 187.156C122.747 187.156 122.221 187.104 121.758 187C121.294 186.896 120.906 186.768 120.594 186.617V185.836C120.984 186.029 121.417 186.185 121.891 186.305C122.365 186.424 122.852 186.484 123.352 186.484C124.227 186.484 124.857 186.336 125.242 186.039C125.628 185.742 125.82 185.336 125.82 184.82C125.82 184.482 125.724 184.203 125.531 183.984C125.344 183.76 125.073 183.568 124.719 183.406C124.365 183.245 123.938 183.081 123.438 182.914C122.917 182.737 122.453 182.562 122.047 182.391C121.646 182.214 121.331 181.982 121.102 181.695C120.872 181.404 120.758 181.008 120.758 180.508C120.758 179.826 121.031 179.294 121.578 178.914C122.125 178.534 122.859 178.344 123.781 178.344C124.292 178.344 124.766 178.393 125.203 178.492C125.646 178.586 126.047 178.708 126.406 178.859L126.125 179.531C125.802 179.38 125.43 179.258 125.008 179.164C124.586 179.07 124.164 179.023 123.742 179.023C123.049 179.023 122.508 179.146 122.117 179.391C121.727 179.635 121.531 179.995 121.531 180.469C121.531 180.833 121.625 181.12 121.812 181.328C122 181.531 122.268 181.703 122.617 181.844C122.966 181.979 123.38 182.13 123.859 182.297C124.354 182.469 124.81 182.648 125.227 182.836C125.648 183.023 125.984 183.266 126.234 183.562C126.484 183.859 126.609 184.263 126.609 184.773ZM131.969 178.344C132.693 178.344 133.294 178.513 133.773 178.852C134.258 179.19 134.617 179.654 134.852 180.242C135.091 180.831 135.211 181.505 135.211 182.266V182.836H129.078C129.078 184.003 129.346 184.898 129.883 185.523C130.424 186.148 131.198 186.461 132.203 186.461C132.729 186.461 133.185 186.419 133.57 186.336C133.961 186.247 134.393 186.099 134.867 185.891V186.617C134.451 186.805 134.034 186.94 133.617 187.023C133.201 187.112 132.721 187.156 132.18 187.156C131.32 187.156 130.599 186.979 130.016 186.625C129.438 186.266 129 185.76 128.703 185.109C128.411 184.458 128.266 183.698 128.266 182.828C128.266 181.979 128.406 181.216 128.688 180.539C128.974 179.862 129.391 179.328 129.938 178.938C130.49 178.542 131.167 178.344 131.969 178.344ZM131.961 179.023C131.148 179.023 130.49 179.294 129.984 179.836C129.484 180.372 129.19 181.148 129.102 182.164H134.391C134.391 181.544 134.302 180.997 134.125 180.523C133.948 180.049 133.68 179.682 133.32 179.422C132.966 179.156 132.513 179.023 131.961 179.023ZM72.7344 208.477C72.9792 208.477 73.2057 208.458 73.4141 208.422C73.6276 208.385 73.8151 208.339 73.9766 208.281V208.938C73.8099 208.995 73.6146 209.044 73.3906 209.086C73.1667 209.133 72.9193 209.156 72.6484 209.156C72.1693 209.156 71.7708 209.068 71.4531 208.891C71.1354 208.708 70.8958 208.435 70.7344 208.07C70.5729 207.701 70.4922 207.232 70.4922 206.664V201.164H69.2266V200.695L70.4844 200.453L70.7578 198.453H71.2812V200.508H73.9297V201.164H71.2812V206.617C71.2812 207.227 71.3932 207.69 71.6172 208.008C71.8464 208.32 72.2188 208.477 72.7344 208.477ZM82.8438 204.742C82.8438 205.398 82.763 205.997 82.6016 206.539C82.4401 207.076 82.2005 207.539 81.8828 207.93C81.5651 208.32 81.1693 208.622 80.6953 208.836C80.2266 209.049 79.6797 209.156 79.0547 209.156C78.4609 209.156 77.9323 209.052 77.4688 208.844C77.0052 208.63 76.612 208.328 76.2891 207.938C75.9714 207.547 75.7292 207.083 75.5625 206.547C75.3958 206.005 75.3125 205.404 75.3125 204.742C75.3125 203.831 75.4635 203.047 75.7656 202.391C76.0729 201.729 76.5104 201.224 77.0781 200.875C77.651 200.521 78.3359 200.344 79.1328 200.344C79.9557 200.344 80.6406 200.531 81.1875 200.906C81.7396 201.276 82.1536 201.792 82.4297 202.453C82.7057 203.115 82.8438 203.878 82.8438 204.742ZM76.125 204.742C76.125 205.487 76.2318 206.138 76.4453 206.695C76.6589 207.253 76.9818 207.688 77.4141 208C77.8516 208.312 78.4036 208.469 79.0703 208.469C79.7526 208.469 80.3125 208.312 80.75 208C81.1875 207.688 81.5104 207.25 81.7188 206.688C81.9271 206.125 82.0312 205.477 82.0312 204.742C82.0312 204.029 81.9323 203.393 81.7344 202.836C81.5365 202.279 81.224 201.841 80.7969 201.523C80.3698 201.201 79.8125 201.039 79.125 201.039C78.1406 201.039 77.3932 201.367 76.8828 202.023C76.3776 202.68 76.125 203.586 76.125 204.742ZM85.9766 196.844V202.977C85.9766 203.357 85.9714 203.745 85.9609 204.141C85.9557 204.531 85.9479 204.922 85.9375 205.312H85.9531C86.1042 205.135 86.2604 204.951 86.4219 204.758C86.5885 204.56 86.7526 204.37 86.9141 204.188L90.2734 200.508H91.2266L87.875 204.148L91.5234 209H90.5781L87.3359 204.672L85.9766 206.102V209H85.1875V196.844H85.9766ZM96.1562 200.344C96.8802 200.344 97.4818 200.513 97.9609 200.852C98.4453 201.19 98.8047 201.654 99.0391 202.242C99.2786 202.831 99.3984 203.505 99.3984 204.266V204.836H93.2656C93.2656 206.003 93.5339 206.898 94.0703 207.523C94.612 208.148 95.3854 208.461 96.3906 208.461C96.9167 208.461 97.3724 208.419 97.7578 208.336C98.1484 208.247 98.5807 208.099 99.0547 207.891V208.617C98.638 208.805 98.2214 208.94 97.8047 209.023C97.388 209.112 96.9089 209.156 96.3672 209.156C95.5078 209.156 94.7865 208.979 94.2031 208.625C93.625 208.266 93.1875 207.76 92.8906 207.109C92.599 206.458 92.4531 205.698 92.4531 204.828C92.4531 203.979 92.5938 203.216 92.875 202.539C93.1615 201.862 93.5781 201.328 94.125 200.938C94.6771 200.542 95.3542 200.344 96.1562 200.344ZM96.1484 201.023C95.3359 201.023 94.6771 201.294 94.1719 201.836C93.6719 202.372 93.3776 203.148 93.2891 204.164H98.5781C98.5781 203.544 98.4896 202.997 98.3125 202.523C98.1354 202.049 97.8672 201.682 97.5078 201.422C97.1536 201.156 96.7005 201.023 96.1484 201.023ZM105.477 200.344C106.43 200.344 107.161 200.594 107.672 201.094C108.182 201.594 108.438 202.378 108.438 203.445V209H107.656V203.492C107.656 202.648 107.464 202.029 107.078 201.633C106.693 201.237 106.133 201.039 105.398 201.039C104.466 201.039 103.753 201.312 103.258 201.859C102.768 202.401 102.523 203.221 102.523 204.32V209H101.734V200.508H102.375L102.492 202.055H102.539C102.69 201.737 102.896 201.451 103.156 201.195C103.422 200.935 103.747 200.729 104.133 200.578C104.518 200.422 104.966 200.344 105.477 200.344ZM118.312 200.359C119.245 200.359 119.943 200.594 120.406 201.062C120.87 201.531 121.102 202.279 121.102 203.305V209H120.492L120.352 207.516H120.305C120.122 207.833 119.901 208.117 119.641 208.367C119.38 208.612 119.06 208.805 118.68 208.945C118.305 209.086 117.846 209.156 117.305 209.156C116.758 209.156 116.289 209.065 115.898 208.883C115.513 208.701 115.214 208.435 115 208.086C114.792 207.737 114.688 207.312 114.688 206.812C114.688 205.969 115.036 205.328 115.734 204.891C116.432 204.448 117.435 204.198 118.742 204.141L120.32 204.062V203.445C120.32 202.576 120.148 201.956 119.805 201.586C119.461 201.216 118.953 201.031 118.281 201.031C117.844 201.031 117.422 201.089 117.016 201.203C116.615 201.312 116.206 201.471 115.789 201.68L115.539 201.023C115.945 200.831 116.38 200.672 116.844 200.547C117.312 200.422 117.802 200.359 118.312 200.359ZM120.312 204.68L118.828 204.742C117.75 204.794 116.93 204.987 116.367 205.32C115.805 205.654 115.523 206.154 115.523 206.82C115.523 207.357 115.69 207.768 116.023 208.055C116.362 208.341 116.831 208.484 117.43 208.484C118.362 208.484 119.073 208.219 119.562 207.688C120.057 207.156 120.307 206.432 120.312 205.516V204.68ZM132.594 200.344C133.411 200.344 134.057 200.581 134.531 201.055C135.005 201.529 135.242 202.276 135.242 203.297V209H134.469V203.328C134.469 202.542 134.289 201.964 133.93 201.594C133.57 201.224 133.096 201.039 132.508 201.039C131.701 201.039 131.068 201.276 130.609 201.75C130.156 202.219 129.93 202.958 129.93 203.969V209H129.148V203.328C129.148 202.802 129.065 202.372 128.898 202.039C128.737 201.701 128.51 201.451 128.219 201.289C127.927 201.122 127.583 201.039 127.188 201.039C126.661 201.039 126.206 201.148 125.82 201.367C125.435 201.581 125.138 201.914 124.93 202.367C124.721 202.815 124.617 203.385 124.617 204.078V209H123.828V200.508H124.469L124.586 201.898H124.633C124.773 201.622 124.961 201.367 125.195 201.133C125.43 200.898 125.719 200.708 126.062 200.562C126.411 200.417 126.82 200.344 127.289 200.344C127.898 200.344 128.414 200.482 128.836 200.758C129.263 201.029 129.56 201.432 129.727 201.969H129.781C130.01 201.458 130.365 201.06 130.844 200.773C131.328 200.487 131.911 200.344 132.594 200.344ZM145.016 204.742C145.016 205.398 144.935 205.997 144.773 206.539C144.612 207.076 144.372 207.539 144.055 207.93C143.737 208.32 143.341 208.622 142.867 208.836C142.398 209.049 141.852 209.156 141.227 209.156C140.633 209.156 140.104 209.052 139.641 208.844C139.177 208.63 138.784 208.328 138.461 207.938C138.143 207.547 137.901 207.083 137.734 206.547C137.568 206.005 137.484 205.404 137.484 204.742C137.484 203.831 137.635 203.047 137.938 202.391C138.245 201.729 138.682 201.224 139.25 200.875C139.823 200.521 140.508 200.344 141.305 200.344C142.128 200.344 142.812 200.531 143.359 200.906C143.911 201.276 144.326 201.792 144.602 202.453C144.878 203.115 145.016 203.878 145.016 204.742ZM138.297 204.742C138.297 205.487 138.404 206.138 138.617 206.695C138.831 207.253 139.154 207.688 139.586 208C140.023 208.312 140.576 208.469 141.242 208.469C141.924 208.469 142.484 208.312 142.922 208C143.359 207.688 143.682 207.25 143.891 206.688C144.099 206.125 144.203 205.477 144.203 204.742C144.203 204.029 144.104 203.393 143.906 202.836C143.708 202.279 143.396 201.841 142.969 201.523C142.542 201.201 141.984 201.039 141.297 201.039C140.312 201.039 139.565 201.367 139.055 202.023C138.549 202.68 138.297 203.586 138.297 204.742ZM153.961 200.508V209H153.32L153.203 207.469H153.156C153.01 207.781 152.805 208.065 152.539 208.32C152.273 208.576 151.948 208.779 151.562 208.93C151.177 209.081 150.729 209.156 150.219 209.156C149.568 209.156 149.021 209.044 148.578 208.82C148.141 208.591 147.81 208.247 147.586 207.789C147.362 207.331 147.25 206.758 147.25 206.07V200.508H148.039V205.992C148.039 206.841 148.229 207.466 148.609 207.867C148.995 208.268 149.557 208.469 150.297 208.469C150.922 208.469 151.445 208.349 151.867 208.109C152.294 207.87 152.617 207.508 152.836 207.023C153.06 206.534 153.172 205.924 153.172 205.195V200.508H153.961ZM160.555 200.344C161.508 200.344 162.24 200.594 162.75 201.094C163.26 201.594 163.516 202.378 163.516 203.445V209H162.734V203.492C162.734 202.648 162.542 202.029 162.156 201.633C161.771 201.237 161.211 201.039 160.477 201.039C159.544 201.039 158.831 201.312 158.336 201.859C157.846 202.401 157.602 203.221 157.602 204.32V209H156.812V200.508H157.453L157.57 202.055H157.617C157.768 201.737 157.974 201.451 158.234 201.195C158.5 200.935 158.826 200.729 159.211 200.578C159.596 200.422 160.044 200.344 160.555 200.344ZM168.562 208.477C168.807 208.477 169.034 208.458 169.242 208.422C169.456 208.385 169.643 208.339 169.805 208.281V208.938C169.638 208.995 169.443 209.044 169.219 209.086C168.995 209.133 168.747 209.156 168.477 209.156C167.997 209.156 167.599 209.068 167.281 208.891C166.964 208.708 166.724 208.435 166.562 208.07C166.401 207.701 166.32 207.232 166.32 206.664V201.164H165.055V200.695L166.312 200.453L166.586 198.453H167.109V200.508H169.758V201.164H167.109V206.617C167.109 207.227 167.221 207.69 167.445 208.008C167.674 208.32 168.047 208.477 168.562 208.477ZM73.4062 222.359C74.3385 222.359 75.0365 222.594 75.5 223.062C75.9635 223.531 76.1953 224.279 76.1953 225.305V231H75.5859L75.4453 229.516H75.3984C75.2161 229.833 74.9948 230.117 74.7344 230.367C74.474 230.612 74.1536 230.805 73.7734 230.945C73.3984 231.086 72.9401 231.156 72.3984 231.156C71.8516 231.156 71.3828 231.065 70.9922 230.883C70.6068 230.701 70.3073 230.435 70.0938 230.086C69.8854 229.737 69.7812 229.312 69.7812 228.812C69.7812 227.969 70.1302 227.328 70.8281 226.891C71.526 226.448 72.5286 226.198 73.8359 226.141L75.4141 226.062V225.445C75.4141 224.576 75.2422 223.956 74.8984 223.586C74.5547 223.216 74.0469 223.031 73.375 223.031C72.9375 223.031 72.5156 223.089 72.1094 223.203C71.7083 223.312 71.2995 223.471 70.8828 223.68L70.6328 223.023C71.0391 222.831 71.474 222.672 71.9375 222.547C72.4062 222.422 72.8958 222.359 73.4062 222.359ZM75.4062 226.68L73.9219 226.742C72.8438 226.794 72.0234 226.987 71.4609 227.32C70.8984 227.654 70.6172 228.154 70.6172 228.82C70.6172 229.357 70.7839 229.768 71.1172 230.055C71.4557 230.341 71.9245 230.484 72.5234 230.484C73.4557 230.484 74.1667 230.219 74.6562 229.688C75.151 229.156 75.401 228.432 75.4062 227.516V226.68ZM82 231.156C80.8385 231.156 79.9531 230.792 79.3438 230.062C78.7396 229.328 78.4375 228.26 78.4375 226.859C78.4375 225.391 78.7578 224.271 79.3984 223.5C80.0391 222.729 80.9323 222.344 82.0781 222.344C82.5677 222.344 82.9922 222.419 83.3516 222.57C83.7161 222.721 84.0208 222.927 84.2656 223.188C84.5156 223.443 84.7083 223.734 84.8438 224.062H84.9062C84.8854 223.786 84.8698 223.49 84.8594 223.172C84.849 222.854 84.8438 222.562 84.8438 222.297V218.844H85.6328V231H84.9922L84.8906 229.445H84.8438C84.7031 229.758 84.5078 230.044 84.2578 230.305C84.013 230.565 83.7057 230.773 83.3359 230.93C82.9661 231.081 82.5208 231.156 82 231.156ZM82.0859 230.469C83.0859 230.469 83.7969 230.159 84.2188 229.539C84.6406 228.914 84.8516 228.023 84.8516 226.867V226.742C84.8516 225.544 84.6406 224.628 84.2188 223.992C83.7969 223.352 83.1094 223.031 82.1562 223.031C81.2135 223.031 80.4922 223.359 79.9922 224.016C79.4974 224.672 79.25 225.625 79.25 226.875C79.25 228.052 79.4818 228.945 79.9453 229.555C80.4141 230.164 81.1276 230.469 82.0859 230.469ZM91.5312 231.156C90.3698 231.156 89.4844 230.792 88.875 230.062C88.2708 229.328 87.9688 228.26 87.9688 226.859C87.9688 225.391 88.2891 224.271 88.9297 223.5C89.5703 222.729 90.4635 222.344 91.6094 222.344C92.099 222.344 92.5234 222.419 92.8828 222.57C93.2474 222.721 93.5521 222.927 93.7969 223.188C94.0469 223.443 94.2396 223.734 94.375 224.062H94.4375C94.4167 223.786 94.401 223.49 94.3906 223.172C94.3802 222.854 94.375 222.562 94.375 222.297V218.844H95.1641V231H94.5234L94.4219 229.445H94.375C94.2344 229.758 94.0391 230.044 93.7891 230.305C93.5443 230.565 93.237 230.773 92.8672 230.93C92.4974 231.081 92.0521 231.156 91.5312 231.156ZM91.6172 230.469C92.6172 230.469 93.3281 230.159 93.75 229.539C94.1719 228.914 94.3828 228.023 94.3828 226.867V226.742C94.3828 225.544 94.1719 224.628 93.75 223.992C93.3281 223.352 92.6406 223.031 91.6875 223.031C90.7448 223.031 90.0234 223.359 89.5234 224.016C89.0286 224.672 88.7812 225.625 88.7812 226.875C88.7812 228.052 89.013 228.945 89.4766 229.555C89.9453 230.164 90.6589 230.469 91.6172 230.469ZM101.367 222.359C101.591 222.359 101.802 222.372 102 222.398C102.198 222.424 102.383 222.461 102.555 222.508L102.43 223.234C102.258 223.188 102.083 223.154 101.906 223.133C101.729 223.107 101.539 223.094 101.336 223.094C100.935 223.094 100.576 223.169 100.258 223.32C99.9453 223.471 99.6797 223.688 99.4609 223.969C99.2422 224.25 99.0755 224.589 98.9609 224.984C98.8464 225.38 98.7891 225.823 98.7891 226.312V231H97.9922V222.508H98.6719L98.75 224.109H98.7969C98.9271 223.781 99.1094 223.487 99.3438 223.227C99.5833 222.961 99.8724 222.75 100.211 222.594C100.549 222.438 100.935 222.359 101.367 222.359ZM107.438 222.344C108.161 222.344 108.763 222.513 109.242 222.852C109.727 223.19 110.086 223.654 110.32 224.242C110.56 224.831 110.68 225.505 110.68 226.266V226.836H104.547C104.547 228.003 104.815 228.898 105.352 229.523C105.893 230.148 106.667 230.461 107.672 230.461C108.198 230.461 108.654 230.419 109.039 230.336C109.43 230.247 109.862 230.099 110.336 229.891V230.617C109.919 230.805 109.503 230.94 109.086 231.023C108.669 231.112 108.19 231.156 107.648 231.156C106.789 231.156 106.068 230.979 105.484 230.625C104.906 230.266 104.469 229.76 104.172 229.109C103.88 228.458 103.734 227.698 103.734 226.828C103.734 225.979 103.875 225.216 104.156 224.539C104.443 223.862 104.859 223.328 105.406 222.938C105.958 222.542 106.635 222.344 107.438 222.344ZM107.43 223.023C106.617 223.023 105.958 223.294 105.453 223.836C104.953 224.372 104.659 225.148 104.57 226.164H109.859C109.859 225.544 109.771 224.997 109.594 224.523C109.417 224.049 109.148 223.682 108.789 223.422C108.435 223.156 107.982 223.023 107.43 223.023ZM118.328 228.773C118.328 229.279 118.201 229.711 117.945 230.07C117.695 230.424 117.328 230.695 116.844 230.883C116.359 231.065 115.763 231.156 115.055 231.156C114.466 231.156 113.94 231.104 113.477 231C113.013 230.896 112.625 230.768 112.312 230.617V229.836C112.703 230.029 113.135 230.185 113.609 230.305C114.083 230.424 114.57 230.484 115.07 230.484C115.945 230.484 116.576 230.336 116.961 230.039C117.346 229.742 117.539 229.336 117.539 228.82C117.539 228.482 117.443 228.203 117.25 227.984C117.062 227.76 116.792 227.568 116.438 227.406C116.083 227.245 115.656 227.081 115.156 226.914C114.635 226.737 114.172 226.562 113.766 226.391C113.365 226.214 113.049 225.982 112.82 225.695C112.591 225.404 112.477 225.008 112.477 224.508C112.477 223.826 112.75 223.294 113.297 222.914C113.844 222.534 114.578 222.344 115.5 222.344C116.01 222.344 116.484 222.393 116.922 222.492C117.365 222.586 117.766 222.708 118.125 222.859L117.844 223.531C117.521 223.38 117.148 223.258 116.727 223.164C116.305 223.07 115.883 223.023 115.461 223.023C114.768 223.023 114.227 223.146 113.836 223.391C113.445 223.635 113.25 223.995 113.25 224.469C113.25 224.833 113.344 225.12 113.531 225.328C113.719 225.531 113.987 225.703 114.336 225.844C114.685 225.979 115.099 226.13 115.578 226.297C116.073 226.469 116.529 226.648 116.945 226.836C117.367 227.023 117.703 227.266 117.953 227.562C118.203 227.859 118.328 228.263 118.328 228.773ZM125.781 228.773C125.781 229.279 125.654 229.711 125.398 230.07C125.148 230.424 124.781 230.695 124.297 230.883C123.812 231.065 123.216 231.156 122.508 231.156C121.919 231.156 121.393 231.104 120.93 231C120.466 230.896 120.078 230.768 119.766 230.617V229.836C120.156 230.029 120.589 230.185 121.062 230.305C121.536 230.424 122.023 230.484 122.523 230.484C123.398 230.484 124.029 230.336 124.414 230.039C124.799 229.742 124.992 229.336 124.992 228.82C124.992 228.482 124.896 228.203 124.703 227.984C124.516 227.76 124.245 227.568 123.891 227.406C123.536 227.245 123.109 227.081 122.609 226.914C122.089 226.737 121.625 226.562 121.219 226.391C120.818 226.214 120.503 225.982 120.273 225.695C120.044 225.404 119.93 225.008 119.93 224.508C119.93 223.826 120.203 223.294 120.75 222.914C121.297 222.534 122.031 222.344 122.953 222.344C123.464 222.344 123.938 222.393 124.375 222.492C124.818 222.586 125.219 222.708 125.578 222.859L125.297 223.531C124.974 223.38 124.602 223.258 124.18 223.164C123.758 223.07 123.336 223.023 122.914 223.023C122.221 223.023 121.68 223.146 121.289 223.391C120.898 223.635 120.703 223.995 120.703 224.469C120.703 224.833 120.797 225.12 120.984 225.328C121.172 225.531 121.44 225.703 121.789 225.844C122.138 225.979 122.552 226.13 123.031 226.297C123.526 226.469 123.982 226.648 124.398 226.836C124.82 227.023 125.156 227.266 125.406 227.562C125.656 227.859 125.781 228.263 125.781 228.773ZM49.2812 252.445C49.2812 252.216 49.3333 252.042 49.4375 251.922C49.5417 251.797 49.6953 251.734 49.8984 251.734C50.1224 251.734 50.2865 251.797 50.3906 251.922C50.4948 252.042 50.5469 252.216 50.5469 252.445C50.5469 252.674 50.4948 252.852 50.3906 252.977C50.2865 253.102 50.1224 253.164 49.8984 253.164C49.6953 253.164 49.5417 253.102 49.4375 252.977C49.3333 252.852 49.2812 252.674 49.2812 252.445ZM53.0938 252.445C53.0938 252.216 53.1458 252.042 53.25 251.922C53.3542 251.797 53.5078 251.734 53.7109 251.734C53.9349 251.734 54.099 251.797 54.2031 251.922C54.3073 252.042 54.3594 252.216 54.3594 252.445C54.3594 252.674 54.3073 252.852 54.2031 252.977C54.099 253.102 53.9349 253.164 53.7109 253.164C53.5078 253.164 53.3542 253.102 53.25 252.977C53.1458 252.852 53.0938 252.674 53.0938 252.445ZM56.9062 252.445C56.9062 252.216 56.9583 252.042 57.0625 251.922C57.1667 251.797 57.3203 251.734 57.5234 251.734C57.7474 251.734 57.9115 251.797 58.0156 251.922C58.1198 252.042 58.1719 252.216 58.1719 252.445C58.1719 252.674 58.1198 252.852 58.0156 252.977C57.9115 253.102 57.7474 253.164 57.5234 253.164C57.3203 253.164 57.1667 253.102 57.0625 252.977C56.9583 252.852 56.9062 252.674 56.9062 252.445Z" fill="white"/>
<path d="M601.572 50C591.947 50 584.143 57.8358 584.143 67.5C584.143 75.643 589.709 82.4274 597.215 84.3805V130.937C597.215 139.397 590.385 146.249 581.964 146.249C573.54 146.249 566.714 139.397 566.714 130.937V126.561H575.428L558 100.313V130.937C558 144.233 568.73 155 581.964 155C595.198 155 605.928 144.233 605.928 130.937V84.3805C613.43 82.4274 619 75.643 619 67.5C619 57.8358 611.196 50 601.572 50ZM601.572 76.2493C596.759 76.2493 592.857 72.3327 592.857 67.5C592.857 62.6673 596.759 58.7493 601.572 58.7493C606.385 58.7493 610.286 62.6673 610.286 67.5C610.286 72.3327 606.385 76.2493 601.572 76.2493Z" fill="#146C94"/>
<circle cx="548.5" cy="175.5" r="46.5" stroke="white" stroke-width="8"/>
<path d="M558 123L566.5 122C566.14 130.187 566.841 133.994 569 140C569 140 563.5 142.5 561.5 142.5C559.5 142.5 557.276 130.753 558 123Z" fill="#146C94"/>
</svg>
